<svg width="191" height="47" viewBox="0 0 191 47" fill="none" xmlns="http://www.w3.org/2000/svg">
<path d="M0.6 34V11.6H5.944V29.2H18.584V34H0.6ZM20.4348 13.136C20.4348 11.152 21.2988 10.192 23.3468 10.192C25.3948 10.192 26.2908 11.152 26.2908 13.136C26.2908 15.088 25.3948 16.08 23.3468 16.08C21.2988 16.08 20.4348 15.088 20.4348 13.136ZM20.8188 34V18H25.8748V34H20.8188ZM45.8048 34H40.7168V25.808C40.7168 23.472 40.0448 22.192 37.5488 22.192C35.3408 22.192 34.1248 23.472 34.1248 26V34H29.0688V18H34.1248V20.112C35.1808 18.48 36.8448 17.52 39.1808 17.52C43.4688 17.52 45.8048 19.312 45.8048 25.264V34ZM53.7498 34H48.6938V10H53.7498V34ZM59.7978 26L66.3898 34H60.3418L53.7498 26L60.3418 18H66.3898L59.7978 26ZM100.617 22.736C100.617 19.056 102.825 17.52 108.329 17.52C114.089 17.52 116.521 19.28 116.521 23.44H112.009C112.009 22.064 110.537 21.648 107.241 21.648C105.193 21.648 104.777 22.128 104.777 22.608C104.777 23.216 106.185 23.568 109.033 23.952C113.417 24.56 116.777 24.944 116.777 29.232C116.777 32.944 114.121 34.48 109.161 34.48C103.241 34.48 100.585 32.72 100.585 28.56H105.129C105.129 29.904 106.889 30.352 109.993 30.352C111.785 30.352 112.617 29.936 112.617 29.328C112.617 28.496 111.145 28.464 108.233 28.112C104.745 27.728 100.617 26.992 100.617 22.736ZM130.486 23.92C130.486 21.872 128.502 21.648 127.094 21.648C125.75 21.648 123.83 21.776 123.83 23.536H119.286C119.286 19.12 122.326 17.52 127.19 17.52C132.822 17.52 135.574 18.928 135.574 24.784V34H130.486V31.92C129.878 33.488 128.47 34.48 125.206 34.48C121.494 34.48 118.39 33.456 118.39 29.328C118.39 25.968 121.014 24.816 124.822 24.464L130.486 23.952V23.92ZM130.486 27.408L125.942 27.824C124.406 27.952 123.606 28.272 123.606 29.232C123.606 30.064 124.63 30.352 126.07 30.352C128.79 30.352 130.39 29.488 130.486 28.496V27.408ZM142.988 34L136.204 18H141.772L145.772 27.408L149.74 18H155.34L148.556 34H142.988ZM172.544 26.8V27.44H160.992C161.376 29.584 162.656 30.352 164.64 30.352C166.496 30.352 167.84 29.52 167.84 28.56H172.352C172.352 32.08 169.664 34.48 164.64 34.48C158.624 34.48 155.648 31.568 155.648 26C155.648 20.56 158.656 17.52 164.064 17.52C170.144 17.52 172.544 20.56 172.544 26.8ZM161.184 23.952H167.616C167.232 22.416 166.016 21.648 164.32 21.648C162.88 21.648 161.728 22.416 161.184 23.952ZM180.156 34H175.1V18H180.156V20.112C181.18 18.48 182.652 17.52 184.54 17.52C188.124 17.52 190.428 19.568 190.428 24.464H185.884C185.884 23.12 184.764 22.192 183.228 22.192C181.308 22.192 180.156 23.472 180.156 26V34Z" fill="#FFB7FF"/>
<rect x="93.5" y="45.498" width="19" height="28" rx="5.5" transform="rotate(-180 93.5 45.498)" stroke="#FFB7FF" stroke-width="3"/>
<rect x="93.7601" y="29.5" width="19" height="28" rx="5.5" transform="rotate(-180 93.7601 29.5)" stroke="#FFB7FF" stroke-width="3"/>
</svg>
