<svg width="198" height="181" viewBox="0 0 198 181" fill="none" xmlns="http://www.w3.org/2000/svg">
<g clip-path="url(#clip0_81_14)">
<path fill-rule="evenodd" clip-rule="evenodd" d="M109.591 0C160.948 0 171.761 70.9394 171.971 71.5233C172.187 72.1247 172.391 72.7436 172.588 73.3444C172.989 74.5647 173.504 75.7395 173.905 76.9516C174.15 77.691 174.601 78.3035 174.902 79.0018C175.488 80.336 176.206 81.6091 177.045 82.802C177.391 83.2743 177.663 83.7963 177.852 84.3501C177.984 84.774 178.423 84.8873 178.613 85.2612C178.919 85.8667 179.328 86.4199 179.682 87.0014C179.763 87.2058 179.948 87.3512 180.167 87.3815L180.097 87.9587C180.226 88.1669 180.269 87.8857 180.403 87.9351C180.571 88.1604 180.811 88.3604 180.835 88.7034C180.857 89.0257 181.235 89.0561 181.364 89.3372C181.647 89.9477 182.435 90.2589 182.423 91.0596C182.989 91.4141 183.268 92.0225 183.695 92.4998C183.915 92.7196 184.049 93.0089 184.074 93.3163L184.078 93.3873C184.075 93.6929 184.667 93.6243 184.507 94.0412C185.414 94.7191 185.649 95.8264 186.127 96.7439C186.895 98.2159 187.779 99.6382 188.3 101.25C188.561 102.057 189.067 102.819 189.349 103.636C189.982 105.471 190.741 107.267 191.153 109.178C191.322 109.968 191.669 110.72 191.831 111.512L192.018 112.427C192.297 113.8 192.561 115.177 192.737 116.568C192.827 116.882 192.827 117.215 192.736 117.529C192.585 117.886 192.986 118.115 193.019 118.474C193.059 118.899 192.889 119.301 193.011 119.753C193.079 120.002 193.011 120.401 193.089 120.69C193.341 121.628 193.022 122.596 193.296 123.528C193.34 123.888 193.302 124.253 193.185 124.597C192.995 125.744 193.343 126.916 192.996 128.036C192.834 128.589 192.803 129.17 192.905 129.736L192.948 129.954C192.979 130.115 192.999 130.273 192.919 130.381C192.603 130.812 192.685 131.319 192.622 131.79L192.61 131.868C192.519 132.394 192.613 132.947 192.453 133.484C192.235 134.009 192.113 134.569 192.092 135.137C192.172 136.101 191.847 136.965 191.647 137.86C191.548 138.306 191.63 138.838 191.137 139.17C190.886 139.339 191.478 139.667 191.119 139.915L191.077 139.941C190.813 140.09 190.825 140.329 190.899 140.615C190.967 140.877 190.508 141.058 190.639 141.326C190.77 141.595 190.83 141.985 190.676 142.034C190.293 142.159 190.683 142.575 190.361 142.654C190.329 142.671 190.307 142.702 190.301 142.737C190.192 143.744 189.542 144.57 189.381 145.575C189.259 146.176 189.024 146.748 188.689 147.262C188.411 147.758 188.175 148.276 187.983 148.811C187.623 149.71 187.006 150.462 186.658 151.356C186.564 151.599 185.934 151.517 186.254 152.015C185.887 152.144 185.999 152.523 185.851 152.76C185.688 152.939 185.499 153.092 185.289 153.213C185.154 153.746 184.894 154.239 184.531 154.653C183.896 155.578 183.204 156.462 182.457 157.3L181.841 157.988C181.017 158.906 180.166 159.803 179.08 160.436C178.8 160.598 178.928 160.907 178.698 161.074C177.366 162.054 176.139 163.165 174.625 163.908C173.99 164.219 173.447 164.771 172.799 165.095C171.571 165.71 170.43 166.475 169.116 166.953L168.882 167.035C168.045 167.312 167.222 167.733 166.372 168.038C164.628 168.721 162.806 169.193 160.948 169.443L159.802 169.57C158.783 169.682 157.762 169.785 156.733 169.813C156.246 169.826 155.779 169.673 155.333 169.728C154.898 169.783 154.458 169.747 154.038 169.624C153.706 169.532 153.425 169.816 153.068 169.663C152.794 169.492 152.454 169.467 152.159 169.591L152.1 169.618C151.931 169.716 151.597 169.535 151.339 169.477C150.963 169.425 150.593 169.334 150.236 169.206C149.959 169.078 149.606 169.488 149.413 169.052C149.063 169.323 125.27 163.687 103.413 175.131C101.633 176.307 99.5504 176.823 97.6486 177.736C96.7643 178.161 95.7705 178.355 94.8189 178.646L94.6156 178.709C92.9355 179.25 91.2127 179.62 89.4922 180.006C87.9117 180.347 86.3101 180.584 84.698 180.716C83.539 180.82 82.3747 180.869 81.2187 180.994C80.7497 181.045 80.2902 180.716 79.8315 180.999C78.8005 180.719 77.7185 181.059 76.6904 180.743C76.0068 180.944 75.3645 180.694 74.7362 180.51C74.2565 180.368 73.8045 180.662 73.32 180.454C72.8789 180.224 72.3848 180.115 71.8878 180.136C71.0624 180.263 70.3439 179.961 69.5923 179.801C67.8455 179.431 66.1048 179.03 64.3705 178.599C63.8026 178.458 63.1646 178.512 62.6781 178.079C62.2511 177.699 61.5774 177.937 61.158 177.489C61.0051 177.325 60.8097 177.642 60.5792 177.518C60.1293 177.278 59.5514 177.436 59.1311 177.002C58.8198 176.681 58.2322 176.898 57.8878 176.51L57.8424 176.453C57.6388 176.172 57.1022 176.836 56.9435 176.208C56.302 176.159 55.7704 175.811 55.1992 175.572C54.7262 175.375 54.1676 175.486 53.7406 175.076C53.3768 174.726 52.6894 174.983 52.3742 174.459C51.603 174.452 51.0345 173.877 50.2996 173.726C49.7419 173.58 49.2062 173.36 48.7071 173.073C47.9157 172.667 47.1123 172.285 46.3027 171.923C46.0125 171.788 45.7298 171.638 45.4559 171.472C45.3025 171.382 45.2653 171.184 45.0459 171.136C43.6578 170.83 42.4906 170.023 41.305 169.318C40.6287 168.97 39.9819 168.568 39.3704 168.117L39.1677 167.965C38.9887 167.812 38.617 167.737 38.4597 167.523C38.021 166.929 37.3649 166.639 36.7697 166.282L36.6713 166.222C36.3359 166.025 36.0313 165.781 35.7665 165.497C35.7164 165.442 35.6962 165.325 35.6429 165.312C34.6553 165.069 34.0657 164.256 33.3106 163.687C32.6609 163.199 32.093 162.603 31.4533 162.106L31.2096 161.924C29.7129 160.857 13.3333 142.892 11.4772 139.792L10.9461 138.905C10.4157 138.016 9.89142 137.121 9.40872 136.208L8.99764 135.431C8.5872 134.651 8.1832 133.867 7.82604 133.069L7.3482 132.003C6.39481 129.871 5.4619 127.728 4.66677 125.527C3.95774 123.563 3.37075 121.567 2.77815 119.569C2.39859 118.287 2.07786 116.998 1.8069 115.691C1.37401 113.603 0.987991 111.505 0.648854 109.4C0.332543 107.417 0.449548 105.406 0.0271415 103.446C0.303886 102.242 -0.204909 101.02 0.111012 99.818C-0.123343 99.2242 0.08273 98.6082 0.104756 98.0229C0.127349 97.4189 -0.00861835 96.786 0.233436 96.1738C0.344321 95.8956 0.0880011 95.5613 0.226881 95.2218C0.37934 94.9392 0.396934 94.6035 0.274859 94.3066C0.686404 94.118 0.195858 93.8278 0.366763 93.5592C0.551026 93.2676 0.632426 92.9234 0.598101 92.5806C0.478258 91.8137 0.921538 91.1055 0.843717 90.4124C0.762575 89.7039 1.1137 89.1031 1.1126 88.4678L1.10807 88.3484C1.04747 87.5147 1.64548 86.8867 1.66543 86.0979C1.66731 86.029 1.83099 85.9654 1.92073 85.8968C1.89194 85.7193 1.69508 85.7596 1.55543 85.6215C1.77837 85.4285 1.97343 85.2061 2.13508 84.9599C2.25743 84.6225 2.34433 84.2736 2.39438 83.9183L1.82749 83.1894C2.03668 82.7725 1.96375 82.3932 2.24304 82.0663C2.3646 81.9232 2.29682 81.4868 2.31183 81.1852C2.33161 80.7894 2.84211 80.5535 2.71897 80.2408C2.62397 79.8811 2.65474 79.4999 2.80623 79.1601C3.53658 75.9508 4.28052 72.7448 5.03805 69.5417C5.11771 69.1983 5.04839 68.7666 5.4723 68.5654C5.00908 68.0887 5.73649 67.9223 5.7478 67.5445C5.80685 67.1913 5.9434 66.8556 6.14772 66.5607C6.43705 66.0095 6.46365 65.3249 6.62843 64.7037C6.67184 64.2643 6.83879 63.8463 7.11013 63.4968C7.39231 63.2058 7.35166 62.6984 7.56413 62.2894C7.86429 61.7954 8.09691 61.2638 8.25587 60.7083C8.30376 60.3095 8.46336 59.9317 8.71645 59.6185C8.94122 59.3712 8.75664 58.8592 9.19347 58.6726C9.31599 57.955 9.74594 57.3785 10.0643 56.7496L10.1225 56.6311C10.9044 55.0129 11.7832 53.4429 12.7542 51.9292C13.5609 50.6555 14.3458 49.3683 15.1648 48.1025C15.4313 47.6938 15.7146 47.2868 16.0076 46.8989C17.0254 45.4722 18.1217 44.1027 19.2916 42.7966C20.3615 41.6665 21.3813 40.4856 22.5047 39.399C23.1019 38.821 23.5906 38.1113 24.1704 37.4974C25.5366 36.0479 26.9397 34.6379 28.4154 33.2996C29.6616 32.0726 31.0245 30.9685 32.4849 30.0031C32.8821 29.7622 33.2084 29.4096 33.5918 29.1431C34.0569 28.8877 34.5033 28.5997 34.9277 28.2813C35.4212 27.8187 36.0269 27.5244 36.5254 27.0958C36.9124 26.7632 37.5315 26.9528 37.8086 26.3546C38.0104 25.9193 38.7661 26.0788 39.0204 25.5702C39.718 25.5471 40.0437 24.8739 40.6773 24.6526L40.7616 24.6264C41.4292 24.4449 41.9988 23.908 42.611 23.5273C43.2018 23.1104 43.8195 22.7334 44.461 22.3987C45.6648 21.8584 46.7037 21.0352 47.8806 20.4771C49.0024 19.9457 50.012 19.1678 51.2357 18.8715C51.5248 18.8017 51.4709 18.5477 51.6698 18.4392C51.8769 18.3258 52.1036 18.4009 52.2905 18.2701C53.0643 17.767 58.234 0 109.591 0Z" fill="#FFB7FF"/>
<path fill-rule="evenodd" clip-rule="evenodd" d="M51.6598 38.0827C49.9419 39.0487 47.4265 37.8165 47.1444 35.8707C48.2402 35.8123 49.4112 35.7271 50.2776 35.0559C51.1437 34.3845 51.4468 32.8979 50.5787 32.2291C43.5099 31.3638 36.6332 28.9701 30.5611 25.2607C34.7073 24.0155 38.2749 21.3888 42.1695 19.5016C46.0639 17.6143 50.7743 16.4982 54.6585 18.4065C58.4723 20.2803 62.8629 17.8901 66.8428 16.3981C73.7631 13.8036 81.699 14.0211 88.4658 16.9908C93.4029 19.1574 101.769 15.6406 107.102 14.8341C115.814 13.5166 124.318 19.6025 133.066 18.5485C132.128 19.167 131.189 19.7855 130.251 20.4039C131.175 20.3197 132.104 20.2857 133.032 20.302C125.772 23.7646 118.513 27.2272 111.253 30.6897C113.092 31.4312 114.931 32.1728 116.77 32.9143C116.338 34.2957 114.788 35.2287 113.36 34.9672C114.509 35.8786 115.658 36.79 116.807 37.7014C115.581 38.5696 114.028 38.9687 112.533 38.7997C114.126 39.8241 115.439 41.2736 116.301 42.9557C120.093 41.6963 124.248 41.5413 128.124 42.5143C124.622 42.972 121.119 43.4298 117.617 43.8872C118.146 45.3224 118.675 46.7578 119.204 48.193C123.779 47.1493 128.641 47.3867 133.092 48.8706C128.679 48.9827 124.265 49.0945 119.851 49.2066C119.748 55.043 116.833 60.995 111.714 63.8314C106.595 66.6676 96.3665 69.1896 92.9785 60.9313C90.3846 62.628 90.5683 66.7067 92.4176 69.1896C94.267 71.6725 97.2051 73.0466 99.8622 74.6429C108.689 79.9451 115.346 88.7253 118.055 98.6362C120.762 108.547 119.491 119.48 114.581 128.511C121.201 129.536 127.353 133.292 131.279 138.703C139.732 134.783 144.414 125.837 150.889 119.151C158.255 111.545 168.424 106.697 178.988 105.754C185.238 105.196 192.366 106.397 196.011 111.488C200.75 118.105 196.381 128.393 188.817 131.435C182.821 133.846 176.058 132.633 169.608 133.089C156.639 134.005 145.253 141.627 134.559 148.998C134.122 151.384 134.998 153.968 136.796 155.602C140.622 151.661 145.447 148.692 150.696 147.049C152.636 146.442 155.544 146.6 155.76 148.616C155.842 149.379 155.439 150.102 155.032 150.753C151.532 156.345 146.598 161.036 140.828 164.256C137.783 165.956 134.38 167.274 130.896 167.079C127.411 166.885 123.862 164.88 122.679 161.607C122.13 160.091 122.071 158.335 121.032 157.1C119.275 155.009 115.899 155.635 113.436 156.822C110.973 158.01 108.347 159.624 105.704 158.92C99.096 157.159 92.219 156.403 85.3848 156.688C76.6816 157.051 67.8135 159.071 59.3812 156.892C56.5644 156.164 53.4122 155.017 50.9167 156.509C45.9989 159.449 49.316 168.862 44.2708 171.58C42.4835 172.542 40.2935 172.187 38.322 171.7C29.6094 169.544 21.4372 165.252 14.7277 159.308C14.081 158.735 13.4148 158.092 13.2336 157.248C12.6899 154.719 16.4353 153.667 18.9875 154.136C23.3227 154.931 27.469 156.732 31.0048 159.356C32.2441 160.276 34.13 159.203 34.6549 157.754C35.1801 156.306 34.8189 154.711 34.6139 153.184C33.3196 143.542 39.3885 133.405 48.517 129.962C42.9902 121.923 40.8887 111.623 42.8262 102.072C44.7638 92.5202 50.7146 83.8433 58.9404 78.5762C62.2264 76.4719 66.0019 74.751 68.0961 71.4649C70.1904 68.1792 69.2712 62.6663 65.4401 61.9087C61.8304 65.8052 55.9593 67.4535 50.84 66.0069C45.7204 64.5607 41.5902 60.087 40.5686 54.8824C37.1706 56.0259 33.773 57.1697 30.3751 58.3135C33.3911 55.997 36.9624 54.4042 40.7053 53.7065C41.0644 52.1552 41.4235 50.6041 41.7829 49.0528C35.2993 48.6359 28.7244 49.6994 22.7059 52.1385C26.4095 49.3599 31.1217 47.9481 35.7483 48.2304C40.4543 48.5176 45.2383 46.2227 47.9485 42.3774C46.2529 41.7833 44.7289 40.7107 43.5998 39.3164C45.3293 38.3808 47.4239 38.1385 49.3222 38.654M84.9203 139.824C84.6116 140.123 84.2794 140.479 84.3014 140.908C84.323 141.336 84.9683 141.657 85.1909 141.289C86.4061 139.283 88.5191 137.841 90.8348 137.437C93.1507 137.032 95.6296 137.674 97.4561 139.149C98.0934 139.664 98.6622 140.279 99.3904 140.656C99.6522 140.791 100.101 140.795 100.112 140.501C100.115 140.404 100.06 140.316 100.005 140.236C98.6939 138.31 96.7326 136.83 94.5159 136.096C92.5726 135.453 90.3207 135.412 88.583 136.492C87.9518 136.883 87.4134 137.405 86.8806 137.922C86.2272 138.556 85.5737 139.19 84.9203 139.824ZM75.4965 136.318C72.9805 135.987 70.2718 136.828 68.5964 138.728C68.3012 139.063 68.0326 139.44 67.9309 139.874C67.8296 140.308 67.9251 140.811 68.2625 141.103C69.5586 139.096 71.8616 137.773 74.2532 137.66C76.645 137.548 79.0629 138.65 80.5426 140.526C80.774 140.819 80.9948 141.14 81.3232 141.319C81.6518 141.498 82.1298 141.475 82.3296 141.16C82.5686 140.783 82.2798 140.301 81.9851 139.966C80.3135 138.062 78.0122 136.65 75.4965 136.318ZM93.243 133.751C93.2041 134.175 93.7661 134.439 94.17 134.3C94.5739 134.161 94.8417 133.79 95.112 133.461C97.3612 130.719 101.644 129.893 104.757 131.6C105.165 131.257 105.189 130.598 104.915 130.14C104.642 129.682 104.143 129.401 103.634 129.239C102.531 128.887 101.334 129.007 100.2 129.236C97.5141 129.778 94.8015 131.046 93.3898 133.387C93.3215 133.5 93.2553 133.619 93.243 133.751ZM82.6857 142.646C81.5821 142.723 80.5019 143.014 79.4685 143.408C78.0406 143.953 76.6347 144.746 75.7988 146.022C77.0246 146.368 78.1997 145.457 79.3194 144.851C81.8314 143.493 85.0896 143.633 87.4743 145.203C88.2227 145.695 89.184 146.331 89.9136 145.812C88.2069 143.679 85.4161 142.457 82.6857 142.646ZM87.2198 141.958C88.0569 141.524 88.7262 140.817 89.5566 140.37C90.7001 139.753 92.1247 139.682 93.3244 140.182C93.9758 140.453 94.5526 140.877 95.1946 141.17C95.8363 141.463 96.6011 141.615 97.2405 141.317C97.3114 141.284 97.3849 141.24 97.4148 141.168C97.4634 141.051 97.377 140.924 97.2932 140.829C95.8621 139.201 93.62 138.318 91.459 138.534C89.2979 138.748 87.2749 140.055 86.195 141.933C86.4205 142.229 86.8894 142.13 87.2198 141.958ZM70.4548 142.036C70.9033 141.782 71.2542 141.389 71.6642 141.077C72.4843 140.453 73.5525 140.165 74.5774 140.284C75.7197 140.416 76.7495 141.019 77.6941 141.672C77.9704 141.863 78.2524 142.064 78.5799 142.14C78.9076 142.216 79.2978 142.134 79.4829 141.854C79.6662 141.577 79.5927 141.191 79.3965 140.924C79.2002 140.656 78.9059 140.48 78.6188 140.312C77.4513 139.63 76.2176 138.947 74.8659 138.878C73.1762 138.791 71.6059 139.669 70.1447 140.518C69.5518 140.863 68.8714 141.385 68.9968 142.058C69.4025 142.375 70.0064 142.29 70.4548 142.036ZM78.0641 135.508C78.3693 135.902 78.9665 135.48 79.303 135.113C80.3405 133.983 81.8357 133.284 83.3702 133.21C84.905 133.137 86.4603 133.69 87.6015 134.716C87.8894 134.975 88.1928 135.28 88.5803 135.29C88.9676 135.301 89.3167 134.762 89.0094 134.527C87.3642 133.267 85.4504 132.238 83.3802 132.102C81.3103 131.966 79.0793 132.891 78.1209 134.725C77.9926 134.971 77.8942 135.289 78.0641 135.508ZM96.3665 135.163C96.6398 135.048 96.8398 134.814 97.0489 134.604C98.6417 133.007 101.34 132.65 103.295 133.778C103.784 134.06 104.52 134.371 104.804 133.884C105.041 133.478 104.619 133.006 104.216 132.762C101.586 131.173 97.8363 131.778 95.8442 134.114C95.6413 134.352 95.4468 134.679 95.5862 134.958C95.718 135.223 96.0932 135.278 96.3665 135.163ZM97.8204 135.313C97.7074 135.408 97.5946 135.513 97.5472 135.652C97.4142 136.04 97.8875 136.403 98.2976 136.371C98.7079 136.338 99.0565 136.076 99.4287 135.901C100.336 135.474 101.427 135.576 102.348 135.972C102.712 136.129 103.065 136.332 103.458 136.391C103.85 136.449 104.308 136.32 104.487 135.966C102.926 134.038 99.7281 133.725 97.8204 135.313ZM73.141 134.573C73.3742 134.682 73.692 134.661 73.8416 134.453C74.0455 134.169 73.8273 133.783 73.6108 133.509C72.8783 132.581 72.0904 131.667 71.0834 131.044C70.0764 130.421 68.8082 130.122 67.6869 130.503C67.5727 130.916 68.0882 131.197 68.4939 131.338C70.0559 131.88 71.4738 132.83 72.5678 134.067C72.738 134.259 72.9082 134.464 73.141 134.573ZM86.9448 135.609C85.1016 134.437 82.5853 134.417 80.7227 135.558C80.3991 135.757 80.0666 136.036 80.0414 136.414C80.0163 136.791 80.5312 137.142 80.7866 136.862C81.8152 135.731 83.6954 135.497 84.9721 136.339C85.5989 136.753 86.499 136.697 87.069 136.208C87.3382 136.18 87.173 135.754 86.9448 135.609ZM100.355 141.95C97.7352 141.773 95.298 143.309 93.3968 145.114C93.5353 145.433 94.0075 145.348 94.3273 145.21C96.4924 144.276 98.6575 143.342 100.823 142.408C100.985 142.194 100.624 141.968 100.355 141.95ZM75.4259 143.112C75.7481 143.294 76.0636 143.542 76.4338 143.542C76.8043 143.542 77.1713 143.098 76.9364 142.813C76.1968 141.914 75.0343 141.376 73.8683 141.394C72.702 141.412 71.5567 141.985 70.845 142.906C70.9329 143.24 71.3438 143.394 71.6871 143.344C72.0304 143.294 72.3329 143.102 72.6516 142.964C73.5323 142.584 74.5909 142.64 75.4259 143.112ZM88.4146 142.867C88.385 143.124 88.6773 143.32 88.9365 143.306C89.1957 143.292 89.4233 143.141 89.6506 143.017C90.6049 142.493 91.7797 142.385 92.8136 142.727C93.4762 142.946 94.3027 143.305 94.7807 142.798C94.8226 142.509 94.5312 142.29 94.272 142.152C93.3435 141.66 92.3212 141.289 91.2694 141.299C90.2176 141.308 89.1325 141.748 88.5317 142.609C88.4772 142.687 88.4254 142.772 88.4146 142.867ZM86.4595 131.587C87.5423 131.973 88.5508 132.565 89.4145 133.322C89.7707 133.634 90.1116 133.979 90.5436 134.174C90.9757 134.369 91.5366 134.374 91.8749 134.042C91.1265 133.47 90.512 132.726 90.0926 131.884C89.8668 131.431 89.2648 131.347 88.7575 131.323C88.0159 131.287 87.2746 131.25 86.533 131.214C86.4548 131.319 86.4269 131.46 86.4595 131.587ZM76.7879 134.182C77.1707 133.826 77.4534 133.376 77.8069 132.991C78.3555 132.394 79.0781 131.957 79.8628 131.749C80.2017 131.659 80.6469 131.486 80.5956 131.14C79.6364 130.974 78.5415 130.84 77.7849 131.451C76.7255 132.307 75.8852 133.43 75.3656 134.687C75.877 134.8 76.4051 134.538 76.7879 134.182ZM68.2601 133.749C68.9476 134.196 69.6353 134.642 70.3227 135.088C70.6139 135.278 70.9853 135.471 71.2873 135.3C71.5676 135.141 71.6103 134.732 71.4642 134.445C71.3183 134.159 71.0398 133.967 70.7723 133.788C70.2126 133.412 69.6529 133.036 69.0932 132.661C68.6242 132.346 67.8606 132.095 67.6058 132.598C67.3858 133.031 67.8518 133.484 68.2601 133.749ZM82.7361 139.117C82.9991 139.377 83.3676 139.658 83.7021 139.498C83.8544 139.426 83.9525 139.276 84.0427 139.134C84.3409 138.664 84.6391 138.195 84.937 137.726C84.1567 136.861 82.6248 136.837 81.8185 137.678C81.7567 137.743 81.6963 137.817 81.6852 137.906C81.6676 138.046 81.7766 138.168 81.8773 138.267C82.1635 138.551 82.45 138.833 82.7361 139.117ZM70.705 145.831C71.2641 146.026 71.924 146.084 72.417 145.757C71.6748 144.906 70.8046 144.165 69.8447 143.568C69.5723 143.399 69.2654 143.236 68.9476 143.28C68.6298 143.326 68.3486 143.686 68.5024 143.967C68.9748 144.828 69.7753 145.506 70.705 145.831ZM101.381 138.99C101.645 138.672 101.909 138.354 102.174 138.036C102.265 137.926 102.361 137.802 102.355 137.66C102.348 137.48 102.182 137.35 102.024 137.261C101.475 136.954 100.827 136.825 100.201 136.9C99.9621 136.929 99.7129 136.994 99.5447 137.166C99.3766 137.338 99.328 137.643 99.4973 137.814C99.8807 138.201 100.264 138.588 100.648 138.976C100.773 139.102 100.932 139.24 101.106 139.202C101.222 139.177 101.306 139.081 101.381 138.99ZM73.8088 132.115C74.0458 132.37 74.3437 132.63 74.6908 132.601C75.4347 132.54 75.6749 131.26 76.4183 131.33C76.6177 131.002 76.0732 130.74 75.6884 130.734C74.6925 130.718 73.6967 130.702 72.7011 130.687C73.0259 131.195 73.3973 131.674 73.8088 132.115ZM79.9588 146.066C82.0302 146.056 84.1016 146.048 86.1733 146.039C85.9917 145.631 85.5058 145.465 85.067 145.374C83.6298 145.077 82.1225 145.123 80.7054 145.505C80.3882 145.591 80.0262 145.745 79.9588 146.066ZM92.7489 143.893C92.0635 143.924 91.3781 143.955 90.6927 143.985C90.4716 143.996 90.1875 144.06 90.1602 144.279C90.1482 144.376 90.1974 144.47 90.2452 144.557C90.4265 144.885 90.6192 145.226 90.9326 145.433C91.2457 145.639 91.7176 145.659 91.9613 145.375C92.1481 145.156 92.1628 144.815 92.3857 144.634C92.5292 144.516 92.7284 144.493 92.8871 144.397C93.0462 144.301 93.1472 144.053 92.9999 143.94C92.9308 143.887 92.8359 143.889 92.7489 143.893ZM75.0027 145.036C75.1858 144.751 75.0127 144.348 74.7274 144.165C74.4421 143.981 74.0853 143.959 73.7464 143.943C73.3721 143.924 72.8792 143.993 72.8118 144.36C72.7799 144.536 72.8695 144.707 72.9559 144.863C73.2099 145.32 73.5836 145.844 74.1052 145.793C74.5097 145.753 74.7833 145.377 75.0027 145.036ZM102.077 140.939C102.384 140.965 102.66 140.757 102.876 140.537C103.534 139.866 103.953 138.966 104.041 138.032C103.823 137.893 103.557 138.109 103.39 138.305C102.83 138.966 102.269 139.626 101.709 140.287C101.51 140.522 101.769 140.914 102.077 140.939ZM67.7927 136.26C68.1052 136.65 68.708 136.772 69.1485 136.534C69.374 136.413 69.5641 136.172 69.5193 135.92C69.4795 135.696 69.275 135.544 69.0864 135.416C68.8137 135.231 68.5413 135.046 68.2686 134.861C68.1855 134.804 68.09 134.745 67.9913 134.765C67.923 134.779 67.8685 134.829 67.8229 134.881C67.4936 135.257 67.4802 135.87 67.7927 136.26ZM91.9973 132.145C92.3245 132.419 92.8095 132.136 93.1343 131.859C93.4867 131.559 93.8391 131.259 94.1917 130.959C93.9922 130.769 93.6733 130.812 93.4032 130.868C92.6185 131.029 91.8339 131.191 91.0492 131.353C91.3652 131.617 91.6813 131.881 91.9973 132.145ZM104.32 128.309C104.517 128.554 104.933 128.501 105.159 128.282C105.386 128.063 105.47 127.739 105.535 127.432C105.55 127.358 105.565 127.278 105.534 127.209C105.454 127.033 105.193 127.086 105.019 127.167C104.548 127.386 103.994 127.905 104.32 128.309Z" fill="white"/>
<path fill-rule="evenodd" clip-rule="evenodd" d="M42.8263 102.072C44.7638 92.5202 51.3886 84.5244 59.6144 79.2573C55.4553 84.9398 42.6925 94.2584 46.7948 104.64C53.3519 121.235 78.8611 123.845 77.9737 124.026C62.8861 127.092 41.3835 109.183 42.8263 102.072Z" fill="#E7EAEE"/>
<path fill-rule="evenodd" clip-rule="evenodd" d="M91.0864 19.1843C90.0366 19.3112 89.112 20.149 88.8853 21.1783C97.3817 16.6252 107.644 15.4547 116.953 17.9769C116.961 22.656 113.667 27.1564 109.195 28.5785L99.4988 31.6616C102.057 31.9445 104.685 31.5705 107.061 30.5858C107.906 31.9118 109.296 32.8804 110.836 33.2141L107.855 33.8657C108.295 35.2001 109.192 36.3804 110.362 37.1628C109.369 36.8239 108.264 36.8204 107.269 37.1532L107.936 39.5686C103.542 38.9608 98.8456 39.5573 95.1439 41.9955C91.4423 44.4338 88.9567 48.9158 89.6236 53.2879C90.4042 48.5343 93.6727 44.2577 98.063 42.2448C102.453 40.2316 107.838 40.5411 111.967 43.0433L109.166 45.111C110.242 45.5376 111.517 45.4287 112.504 44.8258C114.66 45.7767 114.063 49.7081 111.721 49.9805L114.819 50.1954C115.356 55.445 112.102 60.8589 107.205 62.8642C102.307 64.8695 96.1746 63.2992 92.8537 59.1893C88.7315 61.2875 89.0206 67.6467 91.9584 71.2118C94.0092 73.7006 96.8337 75.3173 99.6628 76.9367C100.886 77.637 102.111 78.338 103.274 79.1104C109.453 83.2124 114.058 89.609 115.98 96.7568C112.624 98.9959 109.64 101.786 107.183 104.979C110.818 104.81 114.378 103.332 117.059 100.879L117.632 106.398C114.689 107.301 112.044 109.145 110.183 111.591C112.807 111.858 115.512 111.247 117.763 109.88C116.957 116.231 115.501 122.499 113.426 128.557L106.661 128.502C108.266 124.081 109.892 119.325 108.71 114.774C107.527 110.223 102.224 106.466 98.0492 108.655C102.85 104.798 106.486 99.5182 108.37 93.6663L96.2801 109.22L87.0028 109.299C86.7111 104.942 86.4305 100.477 87.6732 96.2894C88.9157 92.1024 92.0184 88.1826 96.2933 87.228C96.7569 87.1244 97.2507 87.04 97.751 86.9547C99.8403 86.598 102.043 86.2217 102.657 84.3399C95.7271 83.9379 88.7807 88.3595 86.2319 94.795C84.4156 99.3804 84.7354 104.492 85.0834 109.41C78.6771 108.489 72.1173 108.637 65.7594 109.846C64.6557 106.096 63.5111 102.262 61.1957 99.1077C58.8806 95.9539 55.1218 93.5618 51.2204 93.9513C57.5034 94.8819 60.6158 101.841 62.985 107.715C65.3543 113.589 69.6552 120.299 75.9807 119.718C77.782 119.553 78.3555 122.502 76.9748 123.667C75.5941 124.832 73.5429 124.61 71.7755 124.225C62.6722 122.239 54.1731 117.58 47.6154 110.981C46.3387 109.696 45.1041 108.29 44.5139 106.58C43.7861 104.47 44.1252 102.139 44.7512 99.9972C47.9487 89.0529 57.7893 81.5539 67.1413 74.9927C72.1727 71.4626 71.9923 62.7145 66.8197 59.3937C62.9906 62.8616 57.8851 65.2867 52.7423 64.7209C47.5999 64.1552 42.7328 59.9583 42.567 54.8042C44.1821 54.6623 45.7652 54.1681 47.1729 53.3664C45.7912 52.8768 44.2339 52.8978 42.8658 53.4242C42.4938 52.0352 42.7653 50.4882 43.5886 49.3079L46.5209 48.9955C45.9313 48.3314 45.1091 47.8763 44.2319 47.7288C46.3481 44.2145 51.2591 43.2526 55.1951 44.4402C59.1308 45.6278 62.3184 48.4569 65.3678 51.2067C62.1881 44.2577 53.5657 42.018 46.0373 40.5939L49.3222 38.654C47.4239 38.1385 45.3293 38.3808 43.5998 39.3164C44.7289 40.7107 46.2529 41.7833 47.9485 42.3774C45.2383 46.2227 40.4543 48.5176 35.7483 48.2304C31.1217 47.9481 26.4095 49.3599 22.7059 52.1385C28.7244 49.6994 35.2993 48.6359 41.7829 49.0528L40.7053 53.7065C36.9624 54.4042 33.3911 55.997 30.3751 58.3135L40.5686 54.8824C41.5902 60.087 45.7204 64.5607 50.84 66.0069C55.9593 67.4535 61.8304 65.8052 65.4401 61.9087C69.2712 62.6663 70.1904 68.1792 68.0961 71.4649C66.438 74.067 63.7258 75.6875 61.037 77.2943C60.3299 77.7167 59.6246 78.138 58.9404 78.5762C50.7146 83.8433 44.7638 92.5202 42.8262 102.072C40.8887 111.623 42.9902 121.923 48.517 129.962C39.3885 133.405 33.3196 143.542 34.6139 153.184C34.6435 153.405 34.6763 153.627 34.7094 153.85C34.9048 155.169 35.1042 156.515 34.6549 157.754C34.13 159.203 32.2441 160.276 31.0048 159.356C27.469 156.732 23.3227 154.931 18.9875 154.136C16.4353 153.667 12.6899 154.719 13.2336 157.248C13.4148 158.092 14.081 158.735 14.7277 159.308C21.4372 165.252 29.6094 169.544 38.322 171.7C40.2935 172.187 42.4835 172.542 44.2708 171.58C46.8149 170.209 47.2326 167.136 47.6523 164.049C48.0647 161.015 48.4789 157.967 50.9167 156.509C53.1181 155.193 55.8307 155.931 58.373 156.623L58.3745 156.623C58.7137 156.715 59.0499 156.807 59.3812 156.892C65.4272 158.454 71.6967 157.858 77.9692 157.262C80.4454 157.027 82.9215 156.791 85.3848 156.688C92.219 156.403 99.096 157.159 105.704 158.92C108.005 159.533 110.293 158.389 112.472 157.299C112.796 157.137 113.117 156.976 113.436 156.822C115.899 155.635 119.275 155.009 121.032 157.1C121.727 157.926 121.984 158.985 122.242 160.05V160.05H122.242V160.051V160.052L122.242 160.052V160.052V160.053H122.242V160.053V160.054C122.37 160.579 122.498 161.106 122.679 161.607C123.862 164.88 127.411 166.885 130.896 167.079C134.38 167.274 137.783 165.956 140.828 164.256C146.598 161.036 151.532 156.345 155.032 150.753C155.439 150.102 155.842 149.379 155.76 148.616C155.544 146.6 152.636 146.442 150.696 147.049C145.447 148.692 140.622 151.661 136.796 155.602C134.998 153.968 134.122 151.384 134.559 148.998C145.253 141.627 156.639 134.005 169.608 133.089C171.642 132.945 173.706 132.968 175.768 132.989C180.246 133.038 184.711 133.086 188.817 131.435C196.381 128.393 200.75 118.105 196.011 111.488C192.366 106.397 185.238 105.196 178.988 105.754C168.424 106.697 158.255 111.545 150.889 119.151C148.843 121.264 146.975 123.603 145.111 125.938C141.078 130.99 137.06 136.022 131.279 138.703C127.353 133.292 121.201 129.536 114.581 128.511C119.491 119.48 120.762 108.547 118.055 98.6362C115.346 88.7253 108.689 79.9451 99.8622 74.6429C99.3813 74.3539 98.8913 74.0725 98.4001 73.7902L98.3998 73.7899C96.177 72.513 93.9322 71.2229 92.4176 69.1896C90.5683 66.7067 90.3846 62.628 92.9785 60.9313C96.4277 65.6487 103.666 66.6676 108.785 63.8314C113.904 60.995 116.819 55.043 116.922 49.2066L130.163 48.8706C125.712 47.3867 120.85 47.1493 116.275 48.193L114.688 43.8872L125.195 42.5143C121.319 41.5413 117.164 41.6963 113.372 42.9557C112.51 41.2736 111.197 39.8241 109.604 38.7997C111.099 38.9687 112.652 38.5696 113.878 37.7014L110.431 34.9672C111.859 35.2287 113.409 34.2957 113.841 32.9143L108.324 30.6897L130.103 20.302C129.175 20.2857 128.246 20.3197 127.322 20.4039L130.137 18.5485C125.839 19.0664 121.599 17.8604 117.365 16.6559C112.982 15.4092 108.604 14.164 104.173 14.8341C102.432 15.0974 100.68 15.6494 98.9384 16.1982C95.3437 17.3309 91.7914 18.4502 88.4658 16.9908C81.699 14.0211 73.7631 13.8036 66.8428 16.3981C66.2309 16.6275 65.6091 16.8781 64.9814 17.1312C61.5264 18.5243 57.8859 19.9922 54.6585 18.4065C50.7743 16.4982 46.0639 17.6143 42.1695 19.5016C40.8023 20.1641 39.4755 20.9177 38.1498 21.6707C35.6988 23.0627 33.2519 24.4526 30.5611 25.2607C36.6332 28.9701 43.5099 31.3638 50.5787 32.2291C51.4468 32.8979 51.1437 34.3845 50.2776 35.0559C49.4112 35.7271 48.2402 35.8123 47.1444 35.8707C47.4265 37.8165 49.9419 39.0487 51.6598 38.0827C50.9378 38.2164 50.8839 37.0475 51.1838 36.3795L53.0554 32.2107C54.5091 32.7426 56.3181 31.889 56.8265 30.4314C53.2271 30.8631 49.4923 31.2832 46.044 30.1672C42.596 29.051 39.515 25.9373 39.6767 22.3273C47.3556 17.893 57.6639 18.4934 64.7723 23.7891C64.2234 22.1925 62.8743 20.8918 61.2552 20.3982C63.1247 18.5637 65.6065 17.3598 68.2083 17.0251C66.6627 18.244 65.9542 20.4233 66.489 22.3141L73.4292 15.9519C72.2907 17.9862 71.6531 20.2965 71.5875 22.6249C74.1612 20.9484 76.2118 18.4856 77.3907 15.6551L80.4779 16.0871C78.5878 17.6788 77.5348 20.208 77.739 22.6659C80.0915 21.2082 81.9151 18.9219 82.8099 16.309C85.709 16.7758 88.5244 17.7539 91.0864 19.1843ZM176.367 131.811C174.815 131.76 173.262 131.708 171.717 131.752C160.224 132.077 149.539 137.657 140.056 144.138L139.958 144.205L139.851 144.278L139.663 144.406L139.656 144.411C137.857 145.645 136.039 146.891 133.985 147.618L131.572 140.608C131.442 140.232 131.362 139.714 131.713 139.525C135.404 137.536 138.773 134.958 141.655 131.919C143.574 129.893 145.277 127.668 146.978 125.446C149.386 122.298 151.791 119.155 154.802 116.594C159.61 112.504 165.663 110.163 171.737 108.418C176.231 107.125 180.941 106.112 185.565 106.822C190.188 107.531 194.741 110.282 196.436 114.627C197.783 118.079 197.124 122.15 195.049 125.222C192.974 128.294 189.606 130.385 185.996 131.262C182.857 132.025 179.615 131.918 176.367 131.811ZM44.122 146.662C44.3651 147.238 44.5183 148.007 44.0333 148.403C43.4082 148.913 42.5219 148.255 41.9967 147.644L37.5212 142.431C36.4498 145.207 35.9583 148.204 36.0869 151.176C36.1127 151.771 36.1613 152.376 36.2102 152.982V152.983L36.2105 152.983V152.984V152.984V152.985C36.3977 155.306 36.5872 157.658 35.5084 159.671C35.0354 160.554 34.2305 161.364 33.2282 161.429C32.6603 161.466 32.1073 161.259 31.583 161.038C30.146 160.432 28.7301 159.688 27.3147 158.944C23.6713 157.028 20.0307 155.114 16.0411 155.571C15.4962 155.633 14.8178 155.901 14.8391 156.447C14.8486 156.692 15.0087 156.902 15.1644 157.092C20.9164 164.093 29.9114 167.489 38.619 170.052C40.0431 170.472 41.5439 170.88 42.9941 170.562C44.4442 170.243 45.7904 168.94 45.6152 167.47C45.1518 163.582 46.3741 159.522 48.9095 156.531C49.9214 155.337 51.2011 154.274 52.7365 153.956C54.6228 153.565 56.4663 154.34 58.2819 155.103C58.7482 155.299 59.2131 155.494 59.6759 155.668C63.2249 157.006 67.2139 157.152 70.8517 156.077C69.4294 156.059 68.7464 154.359 68.4517 152.972C66.542 143.987 65.5265 134.814 65.4255 125.63C65.4146 124.631 64.7117 123.749 63.864 123.216C63.1464 122.766 62.3281 122.515 61.5144 122.265C61.3671 122.22 61.2197 122.175 61.073 122.129C58.1103 121.193 55.3187 119.723 52.8741 117.81C52.566 117.569 52.2629 117.32 51.9591 117.072C51.0236 116.305 50.0872 115.538 49.0131 114.989C47.5908 114.262 45.8305 113.965 44.405 114.686C44.0869 115.442 44.6618 116.319 45.3976 116.684C45.955 116.96 46.5794 117.035 47.2021 117.11C47.4019 117.134 47.6014 117.158 47.7982 117.188C48.7352 117.333 49.6473 117.637 50.4832 118.084C51.361 118.552 52.1929 119.79 51.4102 120.404C51.0892 120.656 50.6396 120.638 50.2322 120.608L45.6366 120.272C46.7569 123.309 48.1851 126.234 49.8927 128.988C50.0459 129.235 50.2506 129.509 50.5421 129.512C55.0442 129.552 60.0719 130.181 62.925 133.652C63.4657 134.31 63.9094 135.261 63.4458 135.975C60.8305 132.828 56.7395 130.953 52.6398 131.024C48.5401 131.094 44.5165 133.108 42.012 136.344C44.2228 137.819 45.9802 139.959 46.9933 142.411C47.2991 143.151 47.2429 144.362 46.4397 144.346L41.6157 138.459C41.4001 138.196 41.1409 137.91 40.8002 137.9C40.5273 137.891 40.2865 138.065 40.0698 138.231C39.6005 138.591 39.1134 138.972 38.8686 139.509C38.6237 140.046 38.7148 140.785 39.225 141.083C41.3998 142.357 43.1449 144.344 44.122 146.662ZM99.1197 155.875C102.217 153.299 103.228 149.058 104.06 145.123L107.108 130.706C107.141 130.552 107.178 130.388 107.29 130.277C107.436 130.129 107.667 130.113 107.875 130.107C113.432 129.939 119.348 130.467 123.823 133.753C121.997 134.656 120.401 136.016 119.222 137.674C118.892 138.139 118.615 138.839 119.041 139.219C119.201 139.362 119.423 139.413 119.637 139.428C120.704 139.503 121.678 138.839 122.458 138.109C122.626 137.952 122.791 137.789 122.956 137.627C123.558 137.034 124.161 136.438 124.924 136.09C125.897 135.646 127.248 135.771 127.785 136.693C126.05 137.574 124.621 139.039 123.786 140.791C123.569 141.248 123.389 141.775 123.565 142.249C123.741 142.723 124.434 143.001 124.774 142.626L128.125 138.939C128.287 138.76 128.512 138.565 128.739 138.647C128.862 138.692 128.942 138.807 129.012 138.917C130.787 141.694 131.493 144.928 132.202 148.176C132.617 150.078 133.034 151.985 133.666 153.808C134.173 155.268 135.152 156.908 136.702 156.909C137.559 156.91 138.317 156.385 138.995 155.863C139.72 155.305 140.441 154.72 141.166 154.132C144.574 151.368 148.059 148.541 152.352 148.202C153.028 148.149 153.896 148.298 154.055 148.955C154.147 149.337 153.941 149.722 153.735 150.057C150.545 155.262 145.76 159.365 140.474 162.437C137.767 164.01 134.799 165.36 131.666 165.385C128.534 165.409 125.216 163.812 124.032 160.921C123.791 160.332 123.643 159.709 123.496 159.087L123.495 159.087C123.325 158.367 123.154 157.649 122.839 156.982C122.027 155.265 120.226 154.056 118.325 153.951C116.514 153.851 114.848 154.655 113.186 155.458C112.602 155.74 112.019 156.021 111.43 156.263C107.519 157.871 102.921 157.726 99.1197 155.875ZM78.4405 124.836C77.2741 125.828 75.7057 126.224 74.1767 126.335C71.4223 126.537 68.6116 125.894 66.2207 124.516L67.2072 128.238C67.2496 128.398 67.3003 128.571 67.4339 128.67C67.5499 128.756 67.7036 128.767 67.848 128.774L82.0232 129.517C84.0899 129.625 86.1592 129.733 88.2277 129.674C94.0297 129.507 99.7887 127.997 104.922 125.297C105.219 125.141 105.52 124.976 105.734 124.718C105.988 124.412 106.088 124.01 106.173 123.621C106.892 120.334 107.017 116.918 106.539 113.588C106.421 112.77 106.258 111.931 105.796 111.244C105.335 110.557 104.505 110.056 103.69 110.21C95.349 111.793 86.8338 111.304 78.3192 110.815H78.3189H78.3186H78.318H78.3177H78.3174H78.3171C75.1078 110.631 71.8985 110.447 68.6989 110.374C68.1275 110.36 67.5267 110.357 67.0247 110.63C66.523 110.902 66.1776 111.549 66.4354 112.057C67.8943 114.935 70.9091 116.771 74.035 117.599C74.2596 117.658 74.4892 117.717 74.7218 117.776C76.744 118.288 78.9709 118.853 79.7049 120.729C80.262 122.152 79.6065 123.844 78.4405 124.836ZM101.184 149.222C100.612 151.485 99.4097 153.832 97.2288 154.681C96.4658 154.978 95.6395 155.066 94.8241 155.142C87.2623 155.843 79.6197 155.674 72.0965 154.639C71.6487 154.578 71.1765 154.503 70.8274 154.216C70.4021 153.868 70.258 153.29 70.1464 152.753C69.8049 151.105 69.5404 149.441 69.3535 147.769C69.3207 147.473 69.403 147.051 69.7012 147.074C74.515 147.447 79.3429 147.643 84.1713 147.661C87.5019 147.674 90.8591 147.599 94.1123 146.886C97.3653 146.173 100.537 144.779 102.915 142.455C102.239 143.87 101.948 145.416 101.657 146.964V146.964H101.656V146.965V146.965H101.656V146.966V146.966V146.966H101.656C101.514 147.722 101.371 148.479 101.184 149.222ZM84.9203 139.824C84.6116 140.123 84.2794 140.479 84.3014 140.908C84.323 141.336 84.9683 141.657 85.1909 141.289C86.4061 139.283 88.5191 137.841 90.8348 137.437C93.1507 137.032 95.6296 137.674 97.4561 139.149C97.6459 139.303 97.8295 139.465 98.0132 139.627C98.4461 140.009 98.879 140.391 99.3904 140.656C99.6522 140.791 100.101 140.795 100.112 140.501C100.115 140.404 100.06 140.316 100.005 140.236C98.6939 138.31 96.7326 136.83 94.5159 136.096C92.5726 135.453 90.3207 135.412 88.583 136.492C87.9518 136.883 87.4134 137.405 86.8806 137.922L84.9203 139.824ZM68.5964 138.728C70.2718 136.828 72.9805 135.987 75.4965 136.318C78.0122 136.65 80.3135 138.062 81.9851 139.966C82.2798 140.301 82.5686 140.783 82.3296 141.16C82.1298 141.475 81.6518 141.498 81.3232 141.319C81.0367 141.163 80.8323 140.899 80.6311 140.639L80.6299 140.638C80.6123 140.615 80.5944 140.592 80.5769 140.57C80.5654 140.555 80.554 140.54 80.5426 140.526C79.0629 138.65 76.645 137.548 74.2532 137.66C71.8616 137.773 69.5586 139.096 68.2625 141.103C67.9251 140.811 67.8296 140.308 67.9309 139.874C68.0326 139.44 68.3012 139.063 68.5964 138.728ZM93.243 133.751C93.2041 134.175 93.7661 134.439 94.17 134.3C94.5335 134.175 94.7869 133.862 95.0309 133.56C95.0581 133.527 95.0851 133.494 95.112 133.461C97.3612 130.719 101.644 129.893 104.757 131.6C105.165 131.257 105.189 130.598 104.915 130.14C104.642 129.682 104.143 129.401 103.634 129.239C102.531 128.887 101.334 129.007 100.2 129.236C97.5141 129.778 94.8015 131.046 93.3898 133.387C93.3215 133.5 93.2553 133.619 93.243 133.751ZM79.4685 143.408C80.5019 143.014 81.5821 142.723 82.6857 142.646C85.4161 142.457 88.2069 143.679 89.9136 145.812C89.1866 146.33 88.2291 145.699 87.4817 145.208L87.4743 145.203C85.0896 143.633 81.8314 143.493 79.3194 144.851C79.1235 144.957 78.9258 145.073 78.7263 145.189C77.7867 145.737 76.8102 146.308 75.7988 146.022C76.6347 144.746 78.0406 143.953 79.4685 143.408ZM87.2198 141.958C87.648 141.736 88.0323 141.442 88.4166 141.149C88.7836 140.869 89.1509 140.589 89.5566 140.37C90.7001 139.753 92.1247 139.682 93.3244 140.182C93.6744 140.327 94.0028 140.517 94.3314 140.707L94.3317 140.707C94.6147 140.871 94.8976 141.035 95.1946 141.17C95.8363 141.463 96.6011 141.615 97.2405 141.317C97.3114 141.284 97.3849 141.24 97.4148 141.168C97.4634 141.051 97.377 140.924 97.2932 140.829C95.8621 139.201 93.62 138.318 91.459 138.534C89.2979 138.748 87.2749 140.055 86.195 141.933C86.4205 142.229 86.8894 142.13 87.2198 141.958ZM71.2237 141.447C70.98 141.662 70.7366 141.876 70.4548 142.036C70.0064 142.29 69.4025 142.375 68.9968 142.058C68.8714 141.385 69.5518 140.863 70.1447 140.518C71.6059 139.669 73.1762 138.791 74.8659 138.878C76.2176 138.947 77.4513 139.63 78.6188 140.312C78.9059 140.48 79.2002 140.656 79.3965 140.924C79.5927 141.191 79.6662 141.577 79.4829 141.854C79.2978 142.134 78.9076 142.216 78.5799 142.14C78.2644 142.067 77.9914 141.878 77.7252 141.694L77.6941 141.672C76.7495 141.019 75.7197 140.416 74.5774 140.284C73.5525 140.165 72.4843 140.453 71.6642 141.077C71.5128 141.192 71.3696 141.319 71.2263 141.445L71.226 141.445L71.2258 141.445H71.2255V141.446L71.2252 141.446H71.2249L71.2246 141.446L71.2243 141.447L71.224 141.447H71.2237ZM78.0641 135.508C78.3693 135.902 78.9665 135.48 79.303 135.113C80.3405 133.983 81.8357 133.284 83.3702 133.21C84.905 133.137 86.4603 133.69 87.6015 134.716C87.6249 134.737 87.648 134.758 87.6715 134.779C87.9389 135.022 88.2242 135.281 88.5803 135.29C88.9676 135.301 89.3167 134.762 89.0094 134.527C87.3642 133.267 85.4504 132.238 83.3802 132.102C81.3103 131.966 79.0793 132.891 78.1209 134.725C77.9926 134.971 77.8942 135.289 78.0641 135.508ZM96.9564 134.698C96.7789 134.881 96.5993 135.065 96.3665 135.163C96.0932 135.278 95.718 135.223 95.5862 134.958C95.4468 134.679 95.6413 134.352 95.8442 134.114C97.8363 131.778 101.586 131.173 104.216 132.762C104.619 133.006 105.041 133.478 104.804 133.884C104.52 134.371 103.784 134.06 103.295 133.778C101.34 132.65 98.6417 133.007 97.0489 134.604C97.0179 134.635 96.9871 134.667 96.9564 134.698ZM97.8204 135.313C97.7074 135.408 97.5946 135.513 97.5472 135.652C97.4142 136.04 97.8875 136.403 98.2976 136.371C98.5946 136.347 98.8594 136.203 99.1238 136.059C99.2249 136.004 99.3259 135.949 99.4287 135.901C100.336 135.474 101.427 135.576 102.348 135.972C102.375 135.984 102.402 135.996 102.43 136.008C102.489 136.035 102.549 136.063 102.608 136.09C102.883 136.218 103.159 136.346 103.458 136.391C103.85 136.449 104.308 136.32 104.487 135.966C102.926 134.038 99.7281 133.725 97.8204 135.313ZM73.8416 134.453C73.692 134.661 73.3742 134.682 73.141 134.573C72.9246 134.472 72.7623 134.288 72.6041 134.108L72.5678 134.067C71.4738 132.83 70.0559 131.88 68.4939 131.338C68.0882 131.197 67.5727 130.916 67.6869 130.503C68.8082 130.122 70.0764 130.421 71.0834 131.044C72.0904 131.667 72.8783 132.581 73.6108 133.509C73.8273 133.783 74.0455 134.169 73.8416 134.453ZM86.9448 135.609C85.1016 134.437 82.5853 134.417 80.7227 135.558C80.3991 135.757 80.0666 136.036 80.0414 136.414C80.0163 136.791 80.5312 137.142 80.7866 136.862C81.8152 135.731 83.6954 135.497 84.9721 136.339C85.5989 136.753 86.499 136.697 87.069 136.208C87.3382 136.18 87.173 135.754 86.9448 135.609ZM93.3968 145.114C95.298 143.309 97.7352 141.773 100.355 141.95C100.624 141.968 100.985 142.194 100.823 142.408L94.3273 145.21C94.0075 145.348 93.5353 145.433 93.3968 145.114ZM75.4259 143.112C75.4898 143.148 75.5536 143.187 75.6175 143.226C75.8755 143.383 76.1371 143.542 76.4338 143.542C76.8043 143.542 77.1713 143.098 76.9364 142.813C76.1968 141.914 75.0343 141.376 73.8683 141.394C72.702 141.412 71.5567 141.985 70.845 142.906C70.9329 143.24 71.3438 143.394 71.6871 143.344C71.9346 143.309 72.161 143.198 72.3871 143.088C72.475 143.045 72.5625 143.003 72.6516 142.964C73.5323 142.584 74.5909 142.64 75.4259 143.112ZM88.9365 143.306C88.6773 143.32 88.385 143.124 88.4146 142.867C88.4254 142.772 88.4772 142.687 88.5317 142.609C89.1325 141.748 90.2176 141.308 91.2694 141.299C92.3212 141.289 93.3435 141.66 94.272 142.152C94.5312 142.29 94.8226 142.509 94.7807 142.798C94.3505 143.254 93.6378 143.01 93.0166 142.796C92.9475 142.773 92.8798 142.749 92.8136 142.727C91.7797 142.385 90.6049 142.493 89.6506 143.017C89.6178 143.034 89.585 143.053 89.5519 143.072C89.3568 143.182 89.1582 143.294 88.9365 143.306ZM86.4595 131.587C87.5423 131.973 88.5508 132.565 89.4145 133.322C89.4746 133.375 89.5343 133.428 89.5938 133.482L89.5941 133.482H89.5944V133.482C89.8887 133.746 90.1848 134.012 90.5436 134.174C90.9757 134.369 91.5366 134.374 91.8749 134.042C91.1265 133.47 90.512 132.726 90.0926 131.884C89.8668 131.431 89.2648 131.347 88.7575 131.323L86.533 131.214C86.4548 131.319 86.4269 131.46 86.4595 131.587ZM77.3939 133.489C77.2032 133.731 77.0129 133.972 76.7879 134.182C76.4051 134.538 75.877 134.8 75.3656 134.687C75.8852 133.43 76.7255 132.307 77.7849 131.451C78.5415 130.84 79.6364 130.974 80.5956 131.14C80.6469 131.486 80.2017 131.659 79.8628 131.749C79.0781 131.957 78.3555 132.394 77.8069 132.991C77.6613 133.15 77.5275 133.32 77.3939 133.489ZM68.2601 133.749L70.3227 135.088C70.6139 135.278 70.9853 135.471 71.2873 135.3C71.5676 135.141 71.6103 134.732 71.4642 134.445C71.3183 134.159 71.0398 133.967 70.7723 133.788L69.0932 132.661C68.6242 132.346 67.8606 132.095 67.6058 132.598C67.3858 133.031 67.8518 133.484 68.2601 133.749ZM83.7021 139.498C83.3676 139.658 82.9991 139.377 82.7361 139.117L81.8773 138.267C81.7766 138.168 81.6676 138.046 81.6852 137.906C81.6963 137.817 81.7567 137.743 81.8185 137.678C82.6248 136.837 84.1567 136.861 84.937 137.726L84.0427 139.134C83.9525 139.276 83.8544 139.426 83.7021 139.498ZM70.705 145.831C71.2641 146.026 71.924 146.084 72.417 145.757C71.6748 144.906 70.8046 144.165 69.8447 143.568C69.5723 143.399 69.2654 143.236 68.9476 143.28C68.6298 143.326 68.3486 143.686 68.5024 143.967C68.9748 144.828 69.7753 145.506 70.705 145.831ZM102.174 138.036L101.381 138.99C101.306 139.081 101.222 139.177 101.106 139.202C100.932 139.24 100.773 139.102 100.648 138.976L99.4973 137.814C99.328 137.643 99.3766 137.338 99.5447 137.166C99.7129 136.994 99.9621 136.929 100.201 136.9C100.827 136.825 101.475 136.954 102.024 137.261C102.182 137.35 102.348 137.48 102.355 137.66C102.361 137.802 102.265 137.926 102.174 138.036ZM73.8088 132.115C74.0458 132.37 74.3437 132.63 74.6908 132.601C75.0501 132.572 75.2921 132.258 75.5299 131.949C75.7841 131.618 76.034 131.294 76.4183 131.33C76.6177 131.002 76.0732 130.74 75.6884 130.734L72.7011 130.687C73.0259 131.195 73.3973 131.674 73.8088 132.115ZM86.1733 146.039L79.9588 146.066C80.0262 145.745 80.3882 145.591 80.7054 145.505C82.1225 145.123 83.6298 145.077 85.067 145.374C85.5058 145.465 85.9917 145.631 86.1733 146.039ZM92.7489 143.893L90.6927 143.985C90.4716 143.996 90.1875 144.06 90.1602 144.279C90.1482 144.376 90.1974 144.47 90.2452 144.557C90.4265 144.885 90.6192 145.226 90.9326 145.433C91.2457 145.639 91.7176 145.659 91.9613 145.375C92.045 145.276 92.0943 145.154 92.1432 145.032C92.2032 144.882 92.263 144.734 92.3857 144.634C92.4671 144.567 92.5664 144.531 92.666 144.494C92.7421 144.467 92.8183 144.439 92.8871 144.397C93.0462 144.301 93.1472 144.053 92.9999 143.94C92.9308 143.887 92.8359 143.889 92.7489 143.893ZM74.7274 144.165C75.0127 144.348 75.1858 144.751 75.0027 145.036C74.7833 145.377 74.5097 145.753 74.1052 145.793C73.5836 145.844 73.2099 145.32 72.9559 144.863C72.8695 144.707 72.7799 144.536 72.8118 144.36C72.8792 143.993 73.3721 143.924 73.7464 143.943C74.0853 143.959 74.4421 143.981 74.7274 144.165ZM102.077 140.939C102.384 140.965 102.66 140.757 102.876 140.537C103.534 139.866 103.953 138.966 104.041 138.032C103.823 137.893 103.557 138.109 103.39 138.305L101.709 140.287C101.51 140.522 101.769 140.914 102.077 140.939ZM69.1485 136.534C68.708 136.772 68.1052 136.65 67.7927 136.26C67.4802 135.87 67.4936 135.257 67.8229 134.881C67.8685 134.829 67.923 134.779 67.9913 134.765C68.09 134.745 68.1855 134.804 68.2686 134.861L69.0864 135.416C69.275 135.544 69.4795 135.696 69.5193 135.92C69.5641 136.172 69.374 136.413 69.1485 136.534ZM91.9973 132.145C92.3245 132.419 92.8095 132.136 93.1343 131.859L94.1917 130.959C93.9922 130.769 93.6733 130.812 93.4032 130.868L91.0492 131.353L91.9973 132.145ZM44.4067 111.509C44.1662 111.295 44.1047 110.947 44.0977 110.627C44.0895 110.265 44.132 109.902 44.2236 109.552L45.7839 111.577C45.8768 111.697 45.9532 111.905 45.8159 111.972C45.6208 111.841 45.3809 111.804 45.1425 111.768C44.873 111.726 44.6053 111.685 44.4067 111.509ZM104.32 128.309C104.517 128.554 104.933 128.501 105.159 128.282C105.386 128.063 105.47 127.739 105.535 127.432C105.55 127.358 105.565 127.278 105.534 127.209C105.454 127.033 105.193 127.086 105.019 127.167C104.548 127.386 103.994 127.905 104.32 128.309ZM86.6627 38.7965C86.8537 38.3209 87.298 38.0001 87.7359 37.7321C89.0569 36.9231 90.524 36.3521 92.0453 36.0543C92.4094 35.9831 92.8429 35.9484 93.0957 36.219C93.3801 36.5235 93.2377 37.0504 92.9223 37.3225C92.6411 37.5651 92.2712 37.6646 91.9094 37.7619C91.8649 37.7738 91.8207 37.7858 91.777 37.7978C90.5603 38.1335 89.4157 38.7264 88.4409 39.526C88.066 39.8334 87.6217 40.1954 87.1542 40.0658C86.6592 39.9286 86.4718 39.2717 86.6627 38.7965ZM59.2977 38.9074C58.9448 38.7168 58.7061 38.2412 58.926 37.9061C59.0537 37.7114 59.2922 37.6226 59.5186 37.5651C61.3527 37.1012 63.2516 37.9204 64.9108 38.8277C65.2843 39.0318 65.6686 39.2542 65.9041 39.6081C66.1396 39.9622 66.1738 40.4865 65.8666 40.7805C65.3525 41.273 64.5374 40.7665 63.9569 40.3537C62.9405 39.6311 61.7191 39.1979 60.4731 39.1182C60.4178 39.1147 60.3618 39.1118 60.3056 39.1089V39.1086C59.9567 39.0902 59.602 39.0715 59.2977 38.9074ZM78.5257 65.118L77.3192 61.6883C76.2455 62.4608 75.4426 63.6002 75.0783 64.8692C74.7488 64.6021 74.7364 64.1502 74.7244 63.7065C74.7209 63.5739 74.7174 63.442 74.7054 63.3161C74.6342 62.5685 74.163 61.8702 73.4951 61.5228C72.827 61.1751 71.9832 61.1885 71.3268 61.5575C71.5011 61.9373 71.9111 62.0579 72.3332 62.182C72.6138 62.2643 72.8994 62.3484 73.1246 62.5107C73.6009 62.8537 73.7371 63.5004 73.7444 64.086C73.7464 64.2325 73.7426 64.3802 73.7388 64.5283V64.5286C73.7274 64.9708 73.7163 65.414 73.8548 65.8303C73.8996 65.9649 73.9629 66.0989 74.0722 66.1894C74.3817 66.446 74.8504 66.2329 75.1638 65.9809C75.8717 65.4119 76.4285 64.6576 76.7627 63.8148C77.0574 64.1082 77.1663 64.5204 77.2744 64.9294C77.3061 65.0494 77.3377 65.1693 77.374 65.2855C77.5336 65.7985 77.9159 66.347 78.4542 66.3219C78.813 66.3056 79.1021 66.0364 79.3561 65.7833L80.8159 64.33C80.9916 64.1549 81.1826 63.9321 81.1258 63.6907C81.0716 63.4592 80.7959 63.3351 80.5596 63.3684C80.3232 63.4017 80.1211 63.55 79.9363 63.7003C79.4179 64.1219 78.9442 64.598 78.5257 65.118ZM75.1916 51.3608C75.2692 50.7323 75.3123 50.0001 74.8489 49.5666C73.9843 48.7576 73.2271 47.8351 72.6033 46.83C72.3312 46.3918 72.0755 45.8797 72.2052 45.3808C72.4012 44.6273 73.3203 44.3546 74.0956 44.2606C75.336 44.11 76.5917 44.0846 77.8371 44.1844C78.3725 44.2274 78.9398 44.3076 79.3493 44.6536C79.7588 44.9995 79.9067 45.7013 79.5113 46.0633C77.5735 47.8389 76.4388 50.4543 76.4681 53.078C77.1866 53.5427 77.917 54.0133 78.7357 54.2647C79.5544 54.5163 80.4872 54.5245 81.2259 54.0916C81.5367 53.9094 81.7977 53.6601 82.0589 53.4102C82.2394 53.2377 82.4201 53.0648 82.6178 52.9136C83.1017 52.5437 83.7947 52.3146 84.3131 52.6345L82.3401 54.4448C81.554 55.1665 80.5777 55.9424 79.5371 55.6995C79.1926 55.619 78.8901 55.4333 78.5863 55.2468C78.4056 55.1358 78.2246 55.0246 78.0339 54.9353C77.0149 54.4574 75.8193 54.636 74.7183 54.8716C74.6521 54.8856 74.5859 54.8999 74.5191 54.9145L74.5168 54.9148C73.4776 55.1393 72.4023 55.3717 71.3825 55.0926C70.2964 54.7957 69.3439 53.6706 69.6836 52.6007C70.3673 53.5979 71.5579 54.2299 72.7696 54.2393C73.235 54.2428 73.7148 54.154 74.1003 53.8942C74.8893 53.3626 75.0747 52.3032 75.1916 51.3608Z" fill="#00160A"/>
</g>
<defs>
<clipPath id="clip0_81_14">
<rect width="198" height="181" fill="white"/>
</clipPath>
</defs>
</svg>
