<svg width="198" height="229" viewBox="0 0 198 229" fill="none" xmlns="http://www.w3.org/2000/svg">
<g clip-path="url(#clip0_87_15)">
<path fill-rule="evenodd" clip-rule="evenodd" d="M109.278 220.146C120.038 220.229 130.793 219.742 141.501 218.686L141.528 219.018C139.325 219.227 137.12 219.421 134.917 219.65C128.113 220.361 121.282 220.518 114.453 220.694C109.413 220.803 104.379 220.304 99.4589 219.209C93.5818 217.933 87.5859 217.516 81.6203 216.867C70.1632 215.622 58.7993 213.822 47.6791 210.717C46.8035 210.473 45.7909 210.329 45.0844 209.92C43.3321 208.904 41.3101 208.476 39.6735 207.187C38.8027 206.502 37.5508 206.38 36.6483 205.542C34.1994 203.272 31.1625 201.916 28.2972 200.278C23.8778 197.752 19.3776 195.172 16.1691 191.153C10.4077 183.937 5.30943 176.236 2.44461 167.361C-0.520145 158.176 -0.886575 148.899 1.88689 139.499C3.08057 135.452 3.99161 131.355 6.26489 127.728C7.47671 125.876 8.81063 124.106 10.2578 122.431C11.9511 120.392 13.3411 118.128 15.3712 116.333C18.1799 113.85 20.9933 111.404 24.0353 109.193C27.2302 106.873 28.3633 103.339 29.0896 99.5923C29.9875 94.9634 30.3731 90.2434 31.699 85.6883C35.4067 72.951 42.7464 62.9443 53.6743 55.3724C59.1904 51.5498 65.0355 48.3183 70.7516 44.8571C76.1179 41.6073 81.7471 38.775 87.0811 35.4923C99.1338 28.0772 112.089 27.9869 125.377 30.1292C131.276 31.0805 136.866 33.1618 142.397 35.4132C148.438 37.8715 154.578 40.074 160.108 43.6459C170.051 50.0707 177.865 58.3111 182.504 69.3555C184.739 74.6738 186.967 79.996 188.056 85.6843C189.188 91.2482 189.319 96.9687 188.444 102.579C187.32 109.439 185.271 116.093 184.094 122.937C183.877 124.247 183.776 125.573 183.792 126.9C183.81 130.406 183.34 133.917 183.697 137.414C184.129 141.646 184.799 145.853 185.221 150.084C185.823 156.552 185.745 163.065 184.986 169.516C184.304 175.593 183.116 181.603 181.434 187.482C180.46 191 179.06 194.385 177.265 197.564C176.411 199.051 176.034 201.07 174.081 201.789C170.781 207.279 165.102 209.736 159.944 212.851C157.683 214.215 155.176 215.07 152.803 216.188C150.871 217.099 148.857 217.046 146.903 217.446C141.57 218.543 136.123 218.836 130.701 219.259C123.58 219.816 116.439 219.99 109.278 220.146Z" fill="#FFB7FF"/>
<path fill-rule="evenodd" clip-rule="evenodd" d="M94.3734 0.224293C94.217 0.267769 93.9695 0.238197 93.9944 0.0779482C94.0879 0.030012 94.1924 -0.0193119 94.2943 0.00764362C94.3958 0.0345991 94.462 0.181457 94.3801 0.247503L94.3734 0.224293Z" fill="#00160A"/>
<path fill-rule="evenodd" clip-rule="evenodd" d="M95.1697 91.3888L95.5577 91.5507C97.6608 92.4163 99.2518 92.9022 100.331 93.0079C101.475 93.1199 103.147 92.9128 105.345 92.386L105.303 92.9311C104.943 97.7016 104.957 101.303 105.345 103.734C105.747 106.257 106.701 108.452 108.204 110.317C106.515 112.205 103.97 114.109 107.109 122.928C109.24 128.913 105.621 150.102 105.303 167.908C105.152 176.335 106.914 184.079 108.204 188.957C111.288 200.61 116.282 210.559 121.795 215.095C124.548 217.361 129.251 219.59 127.823 220.13C117.277 224.119 76.7044 219.424 76.5377 217.366C76.3847 215.476 87.3049 215.72 88.8503 207.147C91.8396 190.564 86.6341 160.736 86.7815 157.072C87.2167 146.249 90.4553 133.12 94.5075 123.299C94.6582 122.933 95.761 122.867 97.2435 122.928L97.3464 122.512C98.2944 118.606 98.4572 115.932 97.8352 114.488C97.1148 112.817 94.6589 111.216 90.4683 109.685C91.9684 108.781 93.0815 106.915 93.808 104.088L93.8835 103.785C94.566 100.962 94.995 96.8298 95.1697 91.3888Z" fill="white"/>
<path fill-rule="evenodd" clip-rule="evenodd" d="M96.6565 150.864C97.1024 145.416 97.0768 143.32 97.8355 137.907C98.0555 136.337 97.727 123.433 94.9983 125.495C93.976 126.268 94.3833 127.991 93.8948 129.175C89.8429 138.996 87.2174 146.249 86.7818 157.072C86.5581 162.631 86.1841 168.216 86.6334 173.76C87.4297 183.588 95.2835 167.629 96.6565 150.864Z" fill="white"/>
<path fill-rule="evenodd" clip-rule="evenodd" d="M103.747 173.344C102.664 160.37 105.305 147.418 106.68 134.472C107.122 130.31 107.426 126.043 106.38 121.991C105.822 119.825 104.879 117.72 104.834 115.484C104.789 113.248 106.012 110.745 108.205 110.317C103.918 105.157 102.899 97.4922 105.689 91.3888C105.878 94.9145 106.066 98.4399 106.255 101.965C106.355 103.842 106.503 105.85 107.664 107.327C108.824 108.804 111.394 109.292 112.508 107.779C113.689 106.177 116.256 106.317 117.881 107.465C119.506 108.613 120.471 110.45 121.561 112.116C123.461 115.022 125.891 117.566 128.624 119.705C138.821 127.686 144.723 140.489 145.544 153.423C146.016 160.861 138.045 177.904 138.007 189.379C137.979 197.857 145.324 202.133 147.84 203.272C149.716 204.122 151.757 204.598 153.561 205.591C155.366 206.585 156.981 208.291 157.065 210.352C157.152 212.435 155.683 214.248 154.136 215.644C148.03 221.153 139.232 223.515 131.193 221.804C128.203 221.167 125.302 219.987 122.868 218.135C119.596 215.645 117.321 212.082 115.304 208.496C109.21 197.665 104.781 185.732 103.747 173.344Z" fill="white"/>
<path fill-rule="evenodd" clip-rule="evenodd" d="M85.5475 56.3247C86.7461 50.2957 89.368 44.6527 91.9677 39.0761C93.2472 36.3316 95.9862 34.3099 99.0015 33.8851C98.0611 34.5509 97.0491 35.3217 96.8158 36.4449C96.5826 37.5684 97.7443 38.9226 98.7742 38.403C103.173 36.1846 109.016 37.2855 112.291 40.9502C113.397 42.188 114.211 43.6505 115.016 45.0998C117.718 49.9663 120.507 55.2377 119.896 60.7618C119.714 62.4061 119.37 64.4174 120.7 65.413C121.343 65.8943 121.146 66.8858 120.871 67.6373C118.061 75.3116 113.715 82.4278 108.162 88.4501C106.334 90.4325 104.069 92.4269 101.363 92.3857C99.6411 92.3591 98.0591 91.4995 96.5576 90.6625C93.5467 88.984 90.5015 87.2804 87.9983 84.9181C85.4956 82.5558 83.5518 79.4263 83.3252 76.0043C83.1545 73.4226 83.9438 70.7206 83.0241 68.3001C82.5655 67.0942 81.7093 66.0568 81.3369 64.822C80.9649 63.5868 81.3213 61.9494 82.5552 61.5496C84.5744 60.8957 85.1362 58.3938 85.5475 56.3247Z" fill="white"/>
<path d="M111.146 78.1124C112.433 78.1124 113.476 77.0706 113.476 75.7856C113.476 74.5006 112.433 73.4589 111.146 73.4589C109.86 73.4589 108.817 74.5006 108.817 75.7856C108.817 77.0706 109.86 78.1124 111.146 78.1124Z" fill="#FFB7FF"/>
<path fill-rule="evenodd" clip-rule="evenodd" d="M66.8807 219.492C67.6071 218.83 68.2929 218.205 67.9795 217.366C66.0241 217.533 64.3313 219.26 64.2298 221.192C64.1286 223.123 65.6321 225.013 67.5595 225.377C82.2711 228.16 97.4103 228.736 112.296 227.08C115.882 226.681 119.921 225.864 121.795 222.825C121.225 222.067 120.06 222.584 119.229 223.108L118.933 223.298C116.002 225.142 112.426 225.654 108.937 225.938L108.284 225.988C95.2046 226.965 82.0042 226.355 69.0753 224.175C67.3555 223.885 65.1399 222.862 65.5699 221.196C65.7412 220.531 66.3229 220 66.8807 219.492ZM106.272 102.271L105.689 91.3892C102.899 97.4922 103.917 105.157 108.204 110.317C106.012 110.746 104.789 113.248 104.834 115.484C104.865 117.049 105.336 118.549 105.808 120.051C106.01 120.696 106.212 121.34 106.38 121.991C107.426 126.043 107.122 130.31 106.68 134.472L106.62 135.026C106.283 138.124 105.877 141.222 105.471 144.32C104.205 153.987 102.938 163.659 103.747 173.344C104.781 185.732 109.21 197.665 115.303 208.496C117.321 212.082 119.595 215.645 122.868 218.135C125.301 219.987 128.203 221.167 131.193 221.804C139.232 223.515 148.03 221.153 154.136 215.644C155.683 214.248 157.151 212.435 157.065 210.352C156.98 208.291 155.365 206.585 153.561 205.591C152.511 205.013 151.381 204.61 150.249 204.207C149.437 203.917 148.624 203.627 147.84 203.272C141.919 200.592 138.082 193.896 138.758 187.425C135.42 190.914 137.244 197.009 140.847 200.222C143.171 202.293 146.001 203.613 148.839 204.936C150.403 205.665 151.969 206.396 153.454 207.253C154.313 207.75 155.225 208.402 155.392 209.382C155.534 210.215 155.083 211.029 154.595 211.719C151.122 216.622 145.115 219.132 139.194 220.13C135.312 220.784 131.163 220.857 127.615 219.149C124.543 217.67 122.226 215.007 120.206 212.245L119.944 211.885C109.831 197.852 104.52 180.416 105.093 163.121C105.278 157.508 106.062 151.92 106.844 146.339C107.962 138.362 109.079 130.398 108.445 122.396L119.157 114.533C119.931 113.985 121.148 113.541 121.617 114.349C123.152 116.996 125.496 119.004 127.837 121.011C128.649 121.706 129.46 122.402 130.238 123.124C138.911 131.176 143.546 143.061 143.949 154.897C144.352 166.733 140.772 178.485 135.018 188.832C133.534 191.499 129.757 191.468 126.733 191.083L126.653 191.073C126.413 191.04 126.169 190.994 125.978 190.847C125.565 190.53 125.59 189.924 125.684 189.397L125.709 189.267C127.565 180.019 129.345 170.638 128.802 161.221C128.259 151.804 125.153 142.208 118.47 135.56C120.624 139.872 122.504 144.321 124.097 148.871C125.34 152.423 126.412 156.056 126.864 159.792C127.628 166.122 126.593 172.434 125.555 178.763C124.927 182.59 124.299 186.424 124.066 190.272L124.061 190.356C124.031 190.915 124.045 191.522 124.415 191.935C124.738 192.296 125.248 192.409 125.724 192.502L125.844 192.526C129.384 193.21 133.826 193.479 135.687 190.409C142.405 179.331 146.365 166.357 145.544 153.423C144.723 140.489 138.821 127.686 128.623 119.705L128.368 119.503C125.739 117.407 123.402 114.931 121.56 112.116C121.37 111.824 121.183 111.528 120.995 111.23C120.113 109.828 119.222 108.412 117.881 107.465C116.256 106.317 113.689 106.177 112.508 107.779L112.454 107.85C111.313 109.276 108.806 108.781 107.664 107.327C106.566 105.93 106.374 104.057 106.272 102.271ZM90.6942 109.917C94.8892 104.722 96.373 97.4706 94.5531 91.0568L92.9192 101.558C92.614 103.478 92.2203 105.463 90.9684 106.941C89.643 108.505 87.0068 109.158 85.5319 107.733L85.4601 107.665C83.8381 106.208 81.2598 107.456 79.4661 108.818L79.3077 108.94C73.6303 113.385 68.054 118.069 63.6568 123.772C58.7587 130.126 55.4772 137.541 52.5089 144.992L51.9614 146.375C50.0923 151.131 48.3492 156.035 48.2553 161.133C48.1578 166.435 50.1598 172.062 54.5714 175.035C56.9045 176.606 56.784 180.004 56.4056 182.782L54.9175 193.71C54.3504 197.918 53.8765 202.315 55.4472 206.248C57.4765 211.328 62.6405 214.638 67.9858 215.895C73.1178 217.103 78.4688 216.716 83.7296 216.258L92.1794 215.517C92.786 215.462 93.417 215.378 93.8958 215.009C94.3697 214.643 94.6113 214.059 94.803 213.493C96.9228 207.231 95.2692 200.523 93.3794 194.078L92.3145 190.484C90.3681 183.829 88.8087 177.016 88.5548 170.092C88.1941 160.254 90.4703 150.541 92.8493 140.973L98.7191 117.436C99.2139 115.452 98.0412 113.355 96.3893 112.141C94.8476 111.008 92.9588 110.481 91.0936 110.016L90.6942 109.917ZM76.6542 113.247C77.7034 112.384 79.2482 111.542 80.3114 112.388C84.6388 115.831 89.7598 118.278 95.1644 119.487C95.9308 119.658 96.009 120.676 95.8812 121.471L95.8582 121.601C94.8296 126.898 93.405 132.147 91.9821 137.391C89.0896 148.05 86.2038 158.684 86.664 169.639C87.0048 177.743 89.1771 185.63 91.4832 193.426L92.4047 196.527C93.7677 201.14 95.0279 206.097 93.41 210.608C93.023 211.687 92.4286 212.762 91.4373 213.345C90.6616 213.802 89.7342 213.906 88.8384 214.001L83.6794 214.545C78.6282 215.074 73.4779 215.533 68.5452 214.363C63.4108 213.146 58.4672 209.805 56.8136 204.816C55.6136 201.197 56.2662 197.298 56.9005 193.509C56.9417 193.262 56.9827 193.017 57.0233 192.772L57.0951 192.334C57.8262 187.827 58.2385 183.268 58.3281 178.704C64.1516 185.256 69.1515 192.533 73.1744 200.311C73.4642 200.871 74.3151 200.612 74.8532 200.28L75.2669 200.025C77.4758 198.657 79.6941 197.208 81.2388 195.134C82.8804 192.93 83.6072 189.823 82.2944 187.411L74.2938 172.706C71.414 167.406 68.4893 161.683 69.1588 155.705C69.5861 151.886 71.4493 148.406 73.3641 145.054L78.2821 136.487L77.8006 137.006C72.9894 142.218 68.3256 148.111 67.5935 155.123C67.0464 160.364 68.7944 165.563 70.9901 170.372L71.2037 170.836C73.5701 175.929 76.4 180.791 79.2768 185.619L80.357 187.428C81.5327 189.395 81.0129 192.012 79.6974 193.889C78.4665 195.645 76.6612 196.896 74.8586 198.077L74.4859 198.32L70.9864 192.357C67.9216 187.141 64.7516 181.895 60.331 177.764C59.5427 177.027 58.7137 176.324 57.8848 175.622C55.8073 173.861 53.7308 172.101 52.3002 169.81C48.5628 163.825 50.2413 156.075 52.6702 149.42L52.82 149.014C57.8678 135.44 65.4454 122.468 76.6542 113.247ZM132.998 195.606L123.375 193.526C122.826 193.412 122.194 193.339 121.795 193.707C121.884 194.289 122.516 194.603 123.106 194.81L123.241 194.855C126.365 195.883 129.588 196.925 132.884 196.735C133.275 196.713 133.779 196.56 133.775 196.184C133.771 195.844 133.345 195.681 132.998 195.606ZM106.155 124.642L105.998 123.299C104.079 123.622 102.122 123.727 100.179 123.608L100.12 123.605C99.5493 123.57 98.9477 123.533 98.4458 123.796C97.9264 124.069 97.6212 124.807 98.0132 125.237C98.2711 125.52 98.7031 125.556 99.0904 125.572L99.2708 125.58C101.621 125.677 104.084 125.719 106.155 124.642ZM81.138 110.586C80.8092 109.606 81.9989 108.68 83.0315 108.785C83.9083 108.873 84.6504 109.404 85.3762 109.922C85.4025 109.941 85.4284 109.96 85.4547 109.978L85.7615 110.195C88.1815 111.868 91.0723 112.671 93.9498 113.358L94.9354 113.59C96.4416 113.942 96.7184 115.895 96.6455 117.463L96.6359 117.636C96.6269 117.779 96.6143 117.932 96.5251 118.045C96.3451 118.272 95.988 118.206 95.7108 118.116L95.4236 118.023C90.637 116.468 85.8281 114.665 81.915 111.517C81.5952 111.26 81.2684 110.974 81.138 110.586ZM98.8186 34.0151L99.0013 33.8851C95.986 34.3099 93.2469 36.3316 91.9674 39.0761C89.3678 44.6527 86.7459 50.2957 85.5472 56.3247C85.1359 58.3938 84.5742 60.8957 82.5549 61.5496L82.4791 61.5762C81.3064 62.0176 80.9723 63.6124 81.3367 64.822C81.5403 65.4974 81.8891 66.114 82.2378 66.7312C82.527 67.2425 82.8162 67.754 83.0238 68.3001C83.6122 69.8484 83.5013 71.512 83.3895 73.1856C83.3266 74.1283 83.2634 75.0743 83.325 76.0043C83.5516 79.4263 85.4953 82.5558 87.9981 84.9181C90.259 87.0518 92.9621 88.6482 95.6828 90.1739L96.5574 90.6625C98.0588 91.4995 99.6408 92.3591 101.362 92.3857C104.069 92.4269 106.334 90.4325 108.162 88.4501L108.43 88.1576C113.855 82.1982 118.106 75.1876 120.87 67.6373C121.146 66.8858 121.342 65.8943 120.699 65.413C119.578 64.5733 119.646 63.0121 119.805 61.5575L119.895 60.7618C120.491 55.3833 117.862 50.2439 115.229 45.4847L114.882 44.8581C114.12 43.4886 113.336 42.1192 112.291 40.9502C109.016 37.2855 103.173 36.1846 98.774 38.403C97.744 38.9226 96.5823 37.5684 96.8156 36.4449C97.0339 35.3942 97.9337 34.652 98.8186 34.0151ZM85.3546 67.6277C85.7249 65.4103 86.0973 63.1826 86.0158 60.9649C87.3462 64.699 91.8303 67.0001 95.6665 65.9182C96.0735 65.8032 96.4718 65.6559 96.8695 65.509C97.5121 65.2714 98.154 65.0344 98.8302 64.9347C99.9247 64.7734 101.208 65.0892 101.732 66.0575L101.785 66.1532C103.31 68.806 107.268 69.0088 110.102 67.7623C111.566 67.1185 112.883 66.2057 114.2 65.293C115.463 64.4171 116.727 63.5413 118.121 62.9021C118.352 63.7174 118.137 64.561 117.94 65.3329C117.768 66.0073 117.61 66.6265 117.777 67.1245C117.881 66.9805 117.981 66.8399 118.075 66.706C118.683 65.8457 119.106 65.2464 119.665 65.6679C120.31 66.1555 120.264 67.4971 119.665 68.1868C119.452 68.4311 119.202 68.6481 118.952 68.8639C118.498 69.2568 118.047 69.647 117.835 70.1958C115.102 77.2511 110.836 83.7165 105.412 89.0205C104.748 89.6707 104.04 90.3202 103.162 90.634C101.293 91.3021 99.2791 90.2929 97.5544 89.315L96.7264 88.842C91.7441 85.9738 86.5619 82.5066 85.1113 77.0341C84.2967 73.9601 84.8238 70.8044 85.3546 67.6277ZM101.025 68.0123L101.216 67.8816C101.021 66.8755 99.4052 66.9516 98.6232 67.643C97.2805 68.8296 97.1064 71.0726 98.3064 72.3939C99.5067 73.7152 101.902 73.8086 103.159 72.5368C103.186 71.9794 102.454 71.6819 101.879 71.7371C101.698 71.7544 101.516 71.7899 101.335 71.8252C100.939 71.9019 100.545 71.9787 100.166 71.8677C99.3121 71.6181 99.0259 70.5019 99.373 69.7082C99.6898 68.9832 100.356 68.4726 101.025 68.0123ZM83.8983 62.4158L84.1925 62.4151C84.6201 62.4204 85.2075 62.4779 85.1113 62.9021C84.8022 64.2685 84.6611 65.8617 84.5862 66.9536L84.523 67.9541C84.3403 68.0246 83.8175 67.3076 83.5163 66.8944C83.4548 66.81 83.4025 66.7386 83.3642 66.6887L83.325 66.6398C83.2454 66.467 83.138 66.2622 83.0202 66.0379C82.2761 64.6212 81.1177 62.4158 83.8983 62.4158ZM88.6989 50.4719C88.9349 49.6874 89.2027 48.8541 89.8433 48.3393C90.4843 47.824 91.6203 47.8447 91.9801 48.5812C92.8227 50.3077 94.7524 51.2224 96.6123 51.7416C102.105 53.275 108.237 52.3858 113.059 49.3567C113.998 48.7671 115.309 49.1616 116.069 49.966C116.765 50.7032 117.101 51.6938 117.353 52.6796L117.42 52.9482C117.984 55.2663 118.335 57.636 118.467 60.0172C118.488 60.3955 118.496 60.8027 118.285 61.1188C118.159 61.3096 117.965 61.4452 117.777 61.5765L117.483 61.7796C116.647 62.3543 115.783 62.9067 114.807 63.173C113.715 63.4708 112.438 63.3461 111.616 62.5733L111.52 62.4846C109.438 60.6142 106.071 60.322 103.701 61.8238C103.397 62.0169 103.102 62.2379 102.808 62.459C102.052 63.0251 101.298 63.5908 100.377 63.6855C99.0016 63.8271 97.8888 62.9027 96.7813 61.9827C96.3903 61.6576 95.9996 61.3332 95.5983 61.0563C93.3794 59.526 90.2463 59.4339 87.9402 60.8313C86.286 59.6436 86.695 57.1327 87.2793 55.1905L88.6989 50.4719ZM113.205 58.7541L106.033 58.1671C105.624 58.1359 105.191 58.1252 104.848 58.329C104.48 58.5477 104.34 59.1184 104.699 59.3488C104.838 59.4382 105.015 59.4558 105.184 59.4708L112.457 60.115C113.459 60.1964 114.661 60.1548 115.139 59.3435C114.645 58.8914 113.895 58.8106 113.205 58.7541ZM96.8103 58.9868C96.9194 58.5673 96.6758 58.1379 96.388 57.8081C94.7115 55.8879 91.1298 56.0986 89.7026 58.2014C89.4247 58.6105 89.4244 59.3913 89.9265 59.3594C91.3012 57.6193 94.3963 57.5997 95.794 59.3219C96.0695 59.6612 96.7011 59.4063 96.8103 58.9868ZM116.471 57.7221C116.587 57.6031 116.55 57.1188 116.223 56.933C115.981 56.7953 115.297 56.7289 115.182 56.9645C114.925 57.4817 116.112 58.087 116.471 57.7221ZM116.434 55.9717C116.557 55.6709 115.976 54.8272 115.642 54.8256C115.347 54.8246 114.981 55.6838 115.177 55.9667C115.378 56.2565 116.324 56.2412 116.434 55.9717ZM114.401 55.485C114.802 55.4255 115.122 54.5444 114.807 54.312C114.493 54.0814 113.582 54.3233 113.482 54.6119C113.379 54.9097 113.97 55.5489 114.401 55.485ZM90.0111 54.4473C90.4274 55.026 91.4776 54.9206 91.7708 54.2711C92.0636 53.6213 91.4473 52.7644 90.7382 52.8355C90.029 52.9067 89.5951 53.8686 90.0111 54.4473ZM114.818 52.9625C115.278 53.1583 115.966 53.1101 116.006 52.6331C115.968 51.9949 115.266 51.8945 114.807 51.9726C114.44 52.0351 114.446 52.8043 114.818 52.9625ZM113.693 52.9469C114.026 52.7624 113.938 51.7569 113.567 51.6303C113.166 51.4927 112.085 51.7646 112.147 52.4184C112.21 53.0725 113.315 53.1566 113.693 52.9469ZM91.3714 52.5899C91.7721 53.028 92.6316 52.8389 92.811 52.2731C92.9904 51.7071 92.397 51.0579 91.8167 51.1855C91.2363 51.3132 90.9708 52.1515 91.3714 52.5899ZM90.1791 51.2849C90.4996 51.0137 90.5452 50.5267 90.3585 50.2715C89.9814 49.7563 89.666 49.7586 89.4084 50.0122C89.0876 50.3283 89.0726 50.8608 89.2014 51.4112C89.2497 51.6173 89.853 51.5611 90.1791 51.2849ZM108.294 76.6917C107.294 78.0007 105.801 78.9387 104.171 79.2817C104.128 79.2907 104.085 79.2994 104.041 79.3083C103.705 79.3765 103.359 79.4463 103.099 79.662C102.806 79.9056 102.707 80.4175 103.016 80.6416C103.189 80.7665 103.423 80.7612 103.637 80.7419C106.416 80.4926 108.996 78.6921 110.148 76.1981C110.068 75.8036 109.516 75.668 109.146 75.8395C108.82 75.99 108.599 76.2849 108.383 76.5724C108.354 76.6123 108.324 76.6522 108.294 76.6917Z" fill="#00160A"/>
<path fill-rule="evenodd" clip-rule="evenodd" d="M116.157 151.676C116.881 151.218 117.738 152.119 117.942 152.958C118.147 153.798 118.175 154.809 118.877 155.301C119.595 155.806 120.56 155.45 121.418 155.283C122.276 155.117 123.462 155.441 123.459 156.326C123.458 156.544 123.377 156.754 123.293 156.955C122.55 158.741 121.496 160.392 120.195 161.812C120.47 162.957 120.891 164.067 121.444 165.104C121.814 165.797 120.985 166.63 120.207 166.594C119.429 166.558 118.782 166.012 118.151 165.55C117.521 165.087 116.733 164.667 115.995 164.917C115.357 165.133 114.978 165.771 114.561 166.305C114.144 166.838 113.492 167.34 112.855 167.123C112.085 166.86 111.977 165.806 112.094 164.991C112.248 163.924 112.546 162.878 112.977 161.892C113.282 161.195 112.782 160.387 112.16 159.958C111.538 159.529 110.785 159.312 110.196 158.838C109.607 158.363 109.231 157.451 109.681 156.84C109.9 156.544 110.259 156.394 110.606 156.278C111.765 155.893 112.999 155.746 114.214 155.848C114.679 154.728 115.143 153.607 115.607 152.486C115.735 152.179 115.878 151.852 116.157 151.676Z" fill="#FFB7FF"/>
<path fill-rule="evenodd" clip-rule="evenodd" d="M81.9152 111.517C81.5957 111.26 81.2686 110.974 81.1381 110.586C80.8097 109.606 81.999 108.68 83.0316 108.785C83.9088 108.873 84.6506 109.404 85.3763 109.922C85.5051 110.014 85.6332 110.106 85.7617 110.195C88.4582 112.059 91.7393 112.843 94.9356 113.59C96.4976 113.955 96.7376 116.041 96.6361 117.635C96.6271 117.779 96.6144 117.932 96.5252 118.045C96.3452 118.272 95.9881 118.206 95.7109 118.116C90.8298 116.539 85.9065 114.728 81.9152 111.517ZM81.239 195.133C82.8805 192.93 83.6073 189.823 82.2945 187.411L74.4005 172.903C71.4871 167.548 68.4815 161.757 69.159 155.705C69.6142 151.636 71.6984 147.954 73.7389 144.4L78.2823 136.487C73.305 141.827 68.3503 147.877 67.5936 155.123C67.0289 160.534 68.9101 165.899 71.2042 170.836C73.8661 176.566 77.1149 182.003 80.3575 187.428C81.5328 189.395 81.013 192.012 79.6976 193.889C78.3818 195.767 76.4098 197.066 74.486 198.32L71.354 192.982C68.1733 187.562 64.9284 182.06 60.3312 177.764C59.5428 177.027 58.7139 176.324 57.885 175.622C55.8075 173.861 53.731 172.101 52.3007 169.81C48.4868 163.703 50.3124 155.757 52.8202 149.014C57.868 135.44 65.4456 122.468 76.6544 113.247C77.7036 112.384 79.2483 111.542 80.3119 112.388C84.6389 115.831 89.76 118.278 95.1645 119.487C95.9735 119.668 96.0158 120.791 95.8584 121.601C94.8298 126.898 93.4055 132.147 91.9822 137.391C89.0898 148.05 86.2039 158.684 86.6642 169.639C87.0365 178.495 89.5962 187.092 92.1276 195.594C92.1799 195.77 92.2321 195.946 92.2844 196.121C93.6913 200.848 95.0757 205.965 93.4105 210.608C93.0231 211.687 92.4288 212.762 91.4375 213.345C90.6618 213.802 89.7343 213.906 88.8385 214.001L84.2975 214.48C79.049 215.034 73.6794 215.581 68.5453 214.363C63.411 213.146 58.4673 209.805 56.8138 204.816C55.6138 201.197 56.2664 197.298 56.9006 193.509C56.9665 193.116 57.0321 192.724 57.0953 192.334C57.8264 187.827 58.2387 183.268 58.3282 178.704C64.1517 185.256 69.1517 192.533 73.1746 200.311C73.4644 200.871 74.3153 200.612 74.8534 200.28C77.1965 198.835 79.5977 197.337 81.239 195.133Z" fill="white"/>
<path fill-rule="evenodd" clip-rule="evenodd" d="M119.269 112.493C119.307 112.12 119.091 111.773 118.884 111.459C118.276 110.54 117.638 109.592 116.701 109.013C115.763 108.434 114.435 108.333 113.626 109.081C112.07 110.521 110.259 111.685 108.304 112.503C107.018 113.04 106.37 114.56 106.423 115.955C106.477 117.349 107.085 118.654 107.682 119.915C107.786 120.134 107.924 120.381 108.163 120.422C108.363 120.457 108.552 120.33 108.716 120.211C112.234 117.638 115.752 115.066 119.269 112.493Z" fill="white"/>
<path fill-rule="evenodd" clip-rule="evenodd" d="M36.0147 62.235C36.1605 62.0531 36.2247 61.8195 36.1921 61.5891C36.1608 61.3561 36.0363 61.146 35.847 61.0064C35.847 61.0064 33.458 59.3508 33.3166 59.4123C33.1754 59.4741 35.3388 61.6971 35.3388 61.6971C31.2787 66.7263 23.9684 67.6702 18.759 63.8381C13.5495 60.0059 12.2909 52.7584 15.9044 47.4009L31.7265 59.3435C31.9184 59.4847 32.1886 59.4438 32.33 59.2524C32.4715 59.0609 16.4197 46.7095 16.4197 46.7095C16.2324 46.5683 15.9954 46.5091 15.7634 46.5457C15.5314 46.5826 15.3244 46.7119 15.1902 46.9043C11.2216 52.6404 12.5524 60.4866 18.1916 64.5999C23.7938 68.7592 31.6965 67.7105 36.0147 62.235ZM19.4988 63.6067C23.9422 66.8961 30.1306 66.4673 34.0736 62.5966C34.2447 62.4297 34.2473 62.1565 34.08 61.986C33.9122 61.8158 33.6377 61.8128 33.4667 61.9797C29.8197 65.5383 24.1186 65.9355 20.0095 62.9174C15.9005 59.8992 14.598 54.3576 16.9351 49.837C17.0126 49.6994 17.0085 49.5306 16.9243 49.3966C16.8401 49.263 16.6892 49.1855 16.531 49.1948C16.3727 49.2045 16.2323 49.2992 16.1647 49.4421C13.6148 54.3363 15.0306 60.351 19.4988 63.6067ZM20.232 60.6335C20.2044 60.2592 20.2981 59.8866 20.4953 59.5861C20.7332 59.2494 21.0271 58.9699 21.3601 58.7638C21.9897 58.3692 22.3643 58.4915 22.5674 58.6634C23.2295 59.2198 22.7144 60.7222 22.4071 61.1992C22.1629 61.5861 21.773 61.8185 21.3558 61.8251C21.1154 61.8268 20.8808 61.74 20.687 61.5775C20.423 61.3528 20.2571 61.0088 20.232 60.6335ZM22.0883 59.4046C21.7133 59.5279 21.38 59.7789 21.1324 60.1236C21.0513 60.2459 21.0121 60.3982 21.0223 60.5511C21.029 60.6681 21.0786 60.7758 21.159 60.8482C21.3737 60.9855 21.6449 60.9031 21.7715 60.6617C21.9861 60.2891 22.0965 59.8507 22.0883 59.4046ZM24.7255 63.147C25.0916 63.1859 25.4574 63.0723 25.7267 62.8359C25.998 62.6032 26.1691 62.2851 26.2073 61.9418C26.2715 61.4003 26.0358 59.9328 25.122 59.8357C24.835 59.8048 24.4168 59.9065 24.0013 60.5507C23.7794 60.8904 23.6314 61.2684 23.5658 61.6622C23.5217 62.0053 23.6133 62.3513 23.8232 62.6348C24.0308 62.9204 24.36 63.1075 24.7255 63.147ZM25.021 60.6797C25.2469 61.031 25.3536 61.4385 25.3271 61.8484C25.3133 61.989 25.2447 62.1203 25.1344 62.2163C25.0526 62.2925 24.9389 62.3304 24.8243 62.3194C24.7109 62.3034 24.6101 62.2429 24.547 62.1529C24.4625 62.0358 24.4267 61.8939 24.4464 61.754C24.518 61.3495 24.7184 60.9749 25.021 60.6797ZM28.1151 59.2315C28.9242 58.8738 29.8582 60.0727 30.0791 60.5896V60.5883C30.395 61.2577 30.1217 62.0618 29.4672 62.3882C29.3173 62.4553 29.1554 62.4899 28.9917 62.4899C28.8087 62.4889 28.628 62.4474 28.4622 62.3679C28.1455 62.2163 27.8945 61.9514 27.7566 61.6234C27.5362 61.1071 27.3061 59.5891 28.1151 59.2315ZM28.8148 61.5875C28.9126 61.6363 29.0261 61.641 29.1273 61.6001C29.3529 61.4631 29.4308 61.168 29.3029 60.934C29.1171 60.5544 28.8226 60.2413 28.4584 60.0362C28.3578 60.448 28.3825 60.8818 28.5293 61.279C28.5843 61.4139 28.6858 61.524 28.8148 61.5875ZM18.3898 51.864C18.0464 51.8204 17.6999 51.9118 17.4159 52.1212C17.13 52.3286 16.9428 52.6574 16.9027 53.0223C16.853 53.7849 17.394 54.4466 18.1127 54.5022C18.1761 54.5095 18.2397 54.5128 18.3034 54.5125C18.9385 54.5125 20.1348 54.2389 20.2228 53.4176C20.3155 52.5041 18.9322 51.9284 18.3898 51.864ZM18.2041 53.623C17.9446 53.619 17.7353 53.3963 17.7322 53.1211C17.7479 53.0077 17.8087 52.907 17.8991 52.8442C17.9949 52.7741 18.109 52.7372 18.2254 52.7388C18.2496 52.7388 18.2738 52.7388 18.2989 52.7431C18.7048 52.8146 19.0806 53.0154 19.3766 53.3185C19.0235 53.5439 18.6142 53.6499 18.2029 53.623H18.2041ZM17.6676 57.7636C17.5243 57.4412 17.5315 57.0732 17.6875 56.7565C17.8399 56.4394 18.1053 56.1881 18.4335 56.0498C18.9494 55.8281 20.469 55.6024 20.8271 56.4088C21.1853 57.2148 19.9859 58.1555 19.4687 58.3769C19.2799 58.4583 19.0759 58.5009 18.8696 58.5012C18.7214 58.5012 18.5741 58.4786 18.4331 58.434C18.0905 58.331 17.8109 58.086 17.6676 57.7636ZM19.5833 56.691C19.309 56.6863 19.0361 56.7319 18.7787 56.8256H18.78C18.6444 56.8801 18.5341 56.9818 18.4701 57.1111C18.4173 57.2082 18.4125 57.3238 18.4573 57.4246C18.5021 57.5253 18.5915 57.6004 18.6998 57.6283C18.8398 57.6699 18.9904 57.6599 19.1235 57.6004C19.5035 57.4143 19.817 57.1191 20.0225 56.7541C19.8818 56.7046 19.7325 56.683 19.5833 56.691Z" fill="#FFB7FF"/>
<path fill-rule="evenodd" clip-rule="evenodd" d="M174.63 187.88C174.485 187.698 174.421 187.464 174.453 187.234C174.484 187.001 174.609 186.791 174.798 186.651C174.798 186.651 177.187 184.995 177.329 185.057C177.47 185.119 175.306 187.342 175.306 187.342C179.367 192.371 186.677 193.315 191.886 189.483C197.096 185.651 198.354 178.403 194.741 173.046L178.919 184.988C178.727 185.129 178.457 185.088 178.315 184.897C178.174 184.706 194.226 172.354 194.226 172.354C194.413 172.213 194.65 172.154 194.882 172.19C195.114 172.227 195.321 172.356 195.455 172.549C199.424 178.285 198.093 186.131 192.453 190.245C186.851 194.404 178.949 193.355 174.63 187.88ZM191.146 189.251C186.703 192.541 180.515 192.112 176.572 188.241C176.401 188.074 176.398 187.801 176.565 187.631C176.733 187.46 177.008 187.457 177.179 187.624C180.825 191.183 186.527 191.58 190.636 188.562C194.745 185.544 196.047 180.002 193.71 175.482C193.633 175.344 193.637 175.175 193.721 175.041C193.805 174.908 193.956 174.83 194.114 174.839C194.272 174.849 194.413 174.944 194.48 175.087C197.03 179.981 195.615 185.996 191.146 189.251ZM190.413 186.278C190.441 185.904 190.347 185.531 190.15 185.231C189.912 184.894 189.618 184.614 189.285 184.408C188.656 184.014 188.281 184.136 188.078 184.308C187.416 184.864 187.931 186.367 188.238 186.844C188.482 187.231 188.872 187.463 189.289 187.47C189.53 187.471 189.764 187.385 189.958 187.222C190.222 186.997 190.388 186.653 190.413 186.278ZM188.557 185.049C188.932 185.173 189.265 185.423 189.513 185.768C189.594 185.891 189.633 186.043 189.623 186.196C189.616 186.313 189.567 186.42 189.486 186.493C189.272 186.63 189 186.548 188.874 186.306C188.659 185.934 188.549 185.495 188.557 185.049ZM185.92 188.792C185.554 188.831 185.188 188.717 184.919 188.481C184.647 188.248 184.476 187.93 184.438 187.586C184.374 187.045 184.609 185.577 185.523 185.48C185.81 185.449 186.228 185.551 186.644 186.195C186.866 186.535 187.014 186.913 187.08 187.307C187.123 187.65 187.032 187.996 186.822 188.279C186.614 188.565 186.285 188.752 185.92 188.792ZM185.624 186.324C185.398 186.676 185.292 187.083 185.318 187.493C185.332 187.634 185.401 187.765 185.511 187.861C185.593 187.937 185.706 187.975 185.821 187.964C185.934 187.948 186.035 187.888 186.098 187.797C186.183 187.68 186.218 187.539 186.199 187.399C186.127 186.994 185.927 186.619 185.624 186.324ZM182.53 184.876C181.721 184.518 180.787 185.717 180.566 186.234V186.233C180.25 186.902 180.524 187.706 181.178 188.033C181.328 188.1 181.49 188.134 181.653 188.134C181.837 188.133 182.017 188.092 182.183 188.013C182.5 187.861 182.751 187.596 182.889 187.268C183.109 186.752 183.339 185.234 182.53 184.876ZM181.83 187.232C181.733 187.281 181.619 187.286 181.518 187.245C181.292 187.108 181.214 186.813 181.342 186.579C181.528 186.199 181.823 185.886 182.187 185.681C182.287 186.093 182.263 186.526 182.116 186.924C182.061 187.059 181.959 187.169 181.83 187.232ZM192.255 177.509C192.599 177.465 192.945 177.556 193.229 177.766C193.515 177.973 193.702 178.302 193.743 178.667C193.792 179.429 193.251 180.091 192.532 180.147C192.469 180.154 192.406 180.157 192.342 180.157C191.707 180.157 190.51 179.883 190.422 179.062C190.33 178.149 191.713 177.573 192.255 177.509ZM192.441 179.268C192.701 179.264 192.91 179.041 192.913 178.766C192.897 178.652 192.837 178.552 192.746 178.489C192.65 178.419 192.536 178.382 192.42 178.383C192.396 178.383 192.371 178.383 192.346 178.388C191.94 178.459 191.565 178.66 191.268 178.963C191.622 179.188 192.031 179.294 192.442 179.268H192.441ZM192.978 183.408C193.121 183.086 193.114 182.718 192.958 182.401C192.805 182.084 192.54 181.833 192.212 181.694C191.696 181.473 190.176 181.247 189.818 182.053C189.46 182.859 190.659 183.8 191.177 184.021C191.365 184.103 191.569 184.145 191.776 184.146C191.924 184.146 192.071 184.123 192.212 184.079C192.555 183.976 192.834 183.731 192.978 183.408ZM191.062 182.336C191.336 182.331 191.609 182.376 191.866 182.47H191.865C192.001 182.525 192.111 182.626 192.175 182.756C192.228 182.853 192.233 182.968 192.188 183.069C192.143 183.17 192.054 183.245 191.945 183.273C191.805 183.314 191.655 183.304 191.522 183.245C191.142 183.059 190.828 182.764 190.623 182.399C190.763 182.349 190.913 182.328 191.062 182.336Z" fill="#FFB7FF"/>
<path d="M91.18 79.7744C92.4665 79.7744 93.5094 78.7326 93.5094 77.4476C93.5094 76.1626 92.4665 75.1208 91.18 75.1208C89.8935 75.1208 88.8506 76.1626 88.8506 77.4476C88.8506 78.7326 89.8935 79.7744 91.18 79.7744Z" fill="#FFB7FF"/>
<path fill-rule="evenodd" clip-rule="evenodd" d="M85.4434 193.851C85.7393 194.589 84.7682 198.011 82.2345 200.464C79.7004 202.917 76.411 203.499 76.1414 202.827C75.8719 202.155 79.5583 200.833 81.8851 198.439C84.2118 196.044 85.1476 193.114 85.4434 193.851Z" fill="#00160A"/>
</g>
<defs>
<clipPath id="clip0_87_15">
<rect width="198" height="228.022" fill="white"/>
</clipPath>
</defs>
</svg>
